<svg width="166" height="52" viewBox="0 0 166 52" fill="none" xmlns="http://www.w3.org/2000/svg">
<path d="M40.6701 40.3056C40.2659 40.8169 39.7297 41.1933 39.0616 41.4405C37.6918 41.9687 36.2854 42.2327 34.8426 42.2327C33.1191 42.2327 31.5471 41.8563 30.1211 41.0978C28.6979 40.3422 27.5807 39.2073 26.7723 37.6931C26.1744 36.5667 25.7954 35.443 25.6382 34.3138C25.481 33.1873 25.4024 31.6928 25.4024 29.8276V23.1278H22.8705C21.9919 23.1278 21.2424 22.8188 20.6304 22.2035C20.0157 21.5883 19.7069 20.8411 19.7069 19.959C19.7069 19.0798 20.0129 18.3326 20.6304 17.7174C21.2452 17.1022 21.9919 16.7931 22.8705 16.7931H25.4024V11.6215C25.4024 10.672 25.7449 9.85457 26.4298 9.16633C27.1148 8.4809 27.9316 8.13818 28.8832 8.13818C29.8685 8.13818 30.6938 8.4809 31.3619 9.16633C32.0299 9.85176 32.364 10.6692 32.364 11.6215V16.7931H37.1107C37.9893 16.7931 38.736 17.1022 39.3508 17.7174C39.9655 18.3326 40.2743 19.0826 40.2743 19.959C40.2743 20.8383 39.9655 21.5883 39.3508 22.2035C38.736 22.8188 37.9893 23.1278 37.1107 23.1278H32.364V31.572C32.364 33.0496 32.6812 34.193 33.3128 35.002C33.804 35.6706 34.5591 36.0049 35.5809 36.0049C36.1788 36.0049 36.8104 35.8981 37.4785 35.6874C37.8293 35.6172 38.0932 35.5807 38.27 35.5807C39.0785 35.5807 39.7802 35.87 40.3782 36.4515C40.9761 37.033 41.2764 37.7437 41.2764 38.5893C41.2764 39.2241 41.0743 39.7944 40.6701 40.3056Z" fill="black"/>
<path d="M66.0095 17.4786C66.6776 18.1472 67.0116 18.9562 67.0116 19.9057V38.4853C67.0116 39.4348 66.6776 40.2467 66.0095 40.9124C65.3414 41.581 64.533 41.9153 63.5842 41.9153C62.7056 41.9153 61.9505 41.6344 61.3161 41.0697C60.6845 40.5079 60.314 39.8028 60.2073 38.9601C58.3799 41.1428 55.8648 42.2327 52.6647 42.2327C49.7454 42.2327 47.4351 41.3282 45.7284 39.5135C44.0217 37.7016 43.1712 35.179 43.1712 31.94V19.9085C43.1712 18.959 43.5052 18.15 44.1733 17.4814C44.8414 16.8128 45.6498 16.4785 46.5986 16.4785C47.5474 16.4785 48.3559 16.8128 49.0239 17.4814C49.692 18.15 50.0261 18.959 50.0261 19.9085V30.7799C50.0261 32.3277 50.5089 33.5693 51.4773 34.4992C52.4429 35.4318 53.6303 35.8981 55.0367 35.8981C56.4767 35.8981 57.6894 35.3869 58.6746 34.3671C59.6599 33.3474 60.1511 32.0805 60.1511 30.5664V19.9085C60.1511 18.959 60.4852 18.15 61.1533 17.4814C61.8214 16.8128 62.6298 16.4785 63.5786 16.4785C64.533 16.4757 65.3414 16.8128 66.0095 17.4786Z" fill="black"/>
<path d="M87.2646 17.164C87.9327 17.8326 88.2667 18.6416 88.2667 19.5911C88.2667 20.5406 87.9327 21.3496 87.2646 22.0182C86.5965 22.6868 85.7881 23.0211 84.8393 23.0211C82.2371 23.0211 80.3368 23.6812 79.1438 24.9987C77.9479 26.319 77.35 28.6141 77.35 31.8867V38.4854C77.35 39.4012 77.016 40.2018 76.3479 40.8872C75.6798 41.5726 74.8714 41.9153 73.9226 41.9153C72.9738 41.9153 72.1654 41.581 71.4973 40.9125C70.8292 40.2439 70.4952 39.4349 70.4952 38.4854V19.9085C70.4952 18.959 70.8292 18.15 71.4973 17.4814C72.1654 16.8129 72.9738 16.4786 73.9226 16.4786C74.8012 16.4786 75.5591 16.7595 76.1907 17.3213C76.8223 17.8859 77.1928 18.5882 77.2967 19.4338C79.1241 17.2511 81.6392 16.1611 84.8393 16.1611C85.7881 16.1611 86.5965 16.4954 87.2646 17.164Z" fill="black"/>
<path d="M159.249 40.7552C158.474 39.9995 158.09 39.0388 158.09 37.8786C158.09 36.7185 158.477 35.7605 159.249 35.0021C160.021 34.2464 160.953 33.8672 162.045 33.8672C163.134 33.8672 164.066 34.2464 164.841 35.0021C165.613 35.7577 166 36.7157 166 37.8786C166 39.0388 165.613 39.9995 164.841 40.7552C164.066 41.5137 163.134 41.8901 162.045 41.8901C160.953 41.8901 160.021 41.5137 159.249 40.7552Z" fill="#00FFD1"/>
<path d="M123.911 18.8776C125.615 20.6895 126.468 23.2149 126.468 26.451V38.4854C126.468 39.4349 126.134 40.2467 125.466 40.9125C124.798 41.581 123.989 41.9153 123.041 41.9153C122.092 41.9153 121.283 41.581 120.615 40.9125C119.947 40.2439 119.613 39.4349 119.613 38.4854V27.614C119.613 26.0662 119.13 24.8273 118.162 23.8947C117.194 22.9621 116.009 22.4957 114.603 22.4957C113.16 22.4957 111.947 23.007 110.965 24.0267C109.979 25.0464 109.488 26.3134 109.488 27.8275V38.4854C109.488 39.4349 109.154 40.2467 108.486 40.9125C107.818 41.581 107.01 41.9153 106.061 41.9153C105.112 41.9153 104.304 41.581 103.635 40.9125C102.967 40.2439 102.633 39.4349 102.633 38.4854V19.9085C102.633 18.959 102.967 18.15 103.635 17.4814C104.304 16.8129 105.112 16.4786 106.061 16.4786C106.939 16.4786 107.697 16.7595 108.329 17.3213C108.96 17.8859 109.331 18.5882 109.435 19.4338C111.262 17.2511 113.777 16.1611 116.977 16.1611C119.894 16.1611 122.207 17.0657 123.911 18.8776Z" fill="black"/>
<path d="M153.918 17.5063C154.603 18.1918 154.946 19.0092 154.946 19.9615V38.7491C154.946 40.7211 154.761 42.3391 154.393 43.6061C154.022 44.873 153.399 46.0697 152.52 47.1961C151.291 48.8142 149.761 50.0193 147.934 50.8115C146.106 51.6037 144.102 51.9998 141.921 51.9998C138.16 51.9998 134.766 51.1205 131.743 49.362C131.285 49.1148 130.917 48.7552 130.634 48.2805C130.353 47.8057 130.213 47.286 130.213 46.7242C130.213 45.8787 130.51 45.1595 131.108 44.5612C131.706 43.9628 132.427 43.6651 133.27 43.6651C133.831 43.6651 134.342 43.8055 134.799 44.0864C136.767 45.2129 138.895 45.7747 141.18 45.7747C143.816 45.7747 145.769 44.9657 147.033 43.3476C147.35 42.9263 147.577 42.415 147.718 41.8166C147.858 41.2183 147.945 40.3756 147.981 39.2828C145.907 41.2548 143.462 42.238 140.652 42.238C138.578 42.238 136.669 41.6762 134.929 40.5497C133.188 39.4233 131.818 37.867 130.816 35.8781C129.814 33.8893 129.312 31.6644 129.312 29.2008C129.312 26.7372 129.814 24.5123 130.816 22.5235C131.818 20.5374 133.188 18.9783 134.929 17.8519C136.669 16.7254 138.575 16.1636 140.652 16.1636C142.059 16.1636 143.395 16.4276 144.661 16.9558C145.927 17.4839 147.069 18.2227 148.088 19.1722C148.262 18.3996 148.666 17.7564 149.301 17.2451C149.932 16.7366 150.654 16.481 151.462 16.481C152.417 16.4754 153.233 16.8209 153.918 17.5063ZM146.482 33.9988C147.625 32.7319 148.198 31.1307 148.198 29.1952C148.198 27.2597 147.625 25.6585 146.482 24.3915C145.34 23.1246 143.942 22.4926 142.289 22.4926C140.635 22.4926 139.237 23.1246 138.095 24.3915C136.952 25.6585 136.38 27.2597 136.38 29.1952C136.38 31.1307 136.95 32.7319 138.095 33.9988C139.237 35.2657 140.635 35.8978 142.289 35.8978C143.942 35.8978 145.34 35.2657 146.482 33.9988Z" fill="black"/>
<path d="M95.0682 16.4756C97.0612 16.4756 98.6781 18.0937 98.6781 20.0881V38.2998C98.6781 40.2943 97.0612 41.9124 95.0682 41.9124C93.0752 41.9124 91.4583 40.2943 91.4583 38.2998V20.0909C91.4555 18.0936 93.0724 16.4756 95.0682 16.4756Z" fill="black"/>
<path d="M16.0409 2.00286C17.93 2.64335 18.9406 4.69683 18.3006 6.58457L7.03019 39.8364C6.39018 41.7269 4.33821 42.7382 2.45186 42.0977C0.562705 41.4572 -0.447838 39.4038 0.192173 37.516L11.4625 4.26422C12.1026 2.37367 14.1545 1.36238 16.0409 2.00286Z" fill="#F428FF"/>
<path d="M41.8799 1.31481C42.0118 1.48336 42.0792 1.67157 42.0792 1.87944C42.0792 2.15755 41.9781 2.39352 41.776 2.58454C41.5739 2.77556 41.3437 2.87107 41.0883 2.87107C41.0293 2.87107 40.9423 2.85983 40.8272 2.83736C40.583 2.76713 40.3753 2.73342 40.2013 2.73342C39.8083 2.73342 39.5163 2.89635 39.3311 3.2194C39.2047 3.44133 39.1402 3.76438 39.1402 4.19418V4.69982H40.5999C40.889 4.69982 41.136 4.80095 41.3381 5.00321C41.5402 5.20547 41.6413 5.45267 41.6413 5.74201C41.6413 6.03135 41.5402 6.27856 41.3381 6.48082C41.136 6.68307 40.889 6.7842 40.5999 6.7842H39.1402V11.8322C39.1402 12.1469 39.0279 12.4165 38.8005 12.6413C38.5732 12.8688 38.3037 12.9812 37.9921 12.9812C37.6777 12.9812 37.4082 12.8688 37.1837 12.6413C36.9563 12.4137 36.844 12.144 36.844 11.8322V6.78701H36.0777C35.7885 6.78701 35.5415 6.68588 35.3394 6.48363C35.1373 6.28137 35.0363 6.03416 35.0363 5.74482C35.0363 5.45548 35.1373 5.20828 35.3394 5.00602C35.5415 4.80376 35.7885 4.70263 36.0777 4.70263H36.844V4.64926C36.844 4.05653 36.8693 3.58459 36.9226 3.23064C36.9759 2.87669 37.0994 2.51993 37.2959 2.16036C37.5626 1.66033 37.9303 1.28672 38.3991 1.0367C38.8679 0.786688 39.3816 0.663086 39.9374 0.663086C40.423 0.663086 40.8946 0.750169 41.3465 0.924336C41.5683 1.01423 41.7451 1.14626 41.8799 1.31481Z" fill="black"/>
<path d="M50.2338 4.92425C50.4527 5.14337 50.565 5.41023 50.565 5.72486V11.8516C50.565 12.1662 50.4555 12.4331 50.2338 12.6522C50.0148 12.8741 49.7481 12.9837 49.4337 12.9837C49.1446 12.9837 48.8948 12.891 48.6871 12.7056C48.4793 12.5202 48.3558 12.287 48.3221 12.0089C47.7186 12.728 46.8905 13.0876 45.8351 13.0876C44.8723 13.0876 44.1115 12.7898 43.5473 12.1915C42.9859 11.5932 42.7052 10.7616 42.7052 9.69417V5.72486C42.7052 5.41023 42.8147 5.14617 43.0364 4.92425C43.2554 4.70514 43.5221 4.59277 43.8364 4.59277C44.1508 4.59277 44.4175 4.70233 44.6365 4.92425C44.8554 5.14337 44.9677 5.41023 44.9677 5.72486V9.30932C44.9677 9.82058 45.1277 10.2279 45.4449 10.5369C45.7649 10.8431 46.1551 10.9976 46.6183 10.9976C47.0926 10.9976 47.4941 10.8291 47.8169 10.492C48.1425 10.1549 48.3025 9.73912 48.3025 9.23909V5.72486C48.3025 5.41023 48.412 5.14617 48.6337 4.92425C48.8527 4.70514 49.1193 4.59277 49.4337 4.59277C49.7481 4.59558 50.0148 4.70514 50.2338 4.92425Z" fill="black"/>
<path d="M58.7307 5.38489C59.2922 5.98323 59.5729 6.81474 59.5729 7.88221V11.8515C59.5729 12.1662 59.4634 12.433 59.2416 12.6521C59.0199 12.8741 58.756 12.9836 58.4416 12.9836C58.1272 12.9836 57.8606 12.8741 57.6416 12.6521C57.4198 12.433 57.3104 12.1662 57.3104 11.8515V8.26706C57.3104 7.7558 57.1504 7.34847 56.8332 7.03947C56.5132 6.73327 56.123 6.57877 55.6598 6.57877C55.1854 6.57877 54.784 6.74732 54.4612 7.08442C54.1356 7.42151 53.9756 7.84007 53.9756 8.33729V11.8515C53.9756 12.1662 53.8661 12.433 53.6443 12.6521C53.4226 12.8741 53.1587 12.9836 52.8443 12.9836C52.5299 12.9836 52.2633 12.8741 52.0443 12.6521C51.8226 12.433 51.7131 12.1662 51.7131 11.8515V5.72479C51.7131 5.41017 51.8226 5.14611 52.0443 4.92419C52.2633 4.70507 52.5299 4.59271 52.8443 4.59271C53.1334 4.59271 53.3833 4.68541 53.591 4.87081C53.7987 5.05622 53.9222 5.28937 53.9559 5.56748C54.5594 4.84834 55.3875 4.48877 56.443 4.48877C57.4058 4.48877 58.1665 4.78935 58.7307 5.38489Z" fill="black"/>
<path d="M68.592 1.03668C68.8193 1.26422 68.9316 1.5339 68.9316 1.84572V11.835C68.9316 12.1496 68.8193 12.4193 68.592 12.6441C68.3646 12.8716 68.0951 12.984 67.7835 12.984C67.5169 12.984 67.2783 12.8997 67.0705 12.7311C66.8628 12.5626 66.7281 12.3519 66.6691 12.0963C66.3323 12.4109 65.9561 12.6525 65.5379 12.8266C65.1196 13.0008 64.6789 13.0879 64.2158 13.0879C63.5308 13.0879 62.9021 12.9025 62.3294 12.5317C61.7568 12.1609 61.302 11.6468 60.9736 10.9923C60.6424 10.3377 60.4767 9.60175 60.4767 8.78991C60.4767 7.97807 60.6424 7.24488 60.9736 6.58755C61.3048 5.93302 61.7568 5.41894 62.3294 5.04814C62.9021 4.67733 63.5308 4.49193 64.2158 4.49193C64.6789 4.49193 65.1168 4.5762 65.5295 4.74475C65.9421 4.9133 66.3098 5.15488 66.6326 5.4667V1.84572C66.6326 1.53109 66.7449 1.26141 66.9723 1.03668C67.1997 0.809143 67.4692 0.696777 67.7807 0.696777C68.0951 0.696777 68.3646 0.809143 68.592 1.03668ZM66.1386 10.3715C66.5147 9.95289 66.7028 9.42478 66.7028 8.7871C66.7028 8.14943 66.5147 7.62131 66.1386 7.20275C65.7625 6.78418 65.3021 6.57631 64.7547 6.57631C64.2101 6.57631 63.7498 6.78418 63.3708 7.20275C62.9947 7.62131 62.8066 8.14943 62.8066 8.7871C62.8066 9.42478 62.9947 9.95289 63.3708 10.3715C63.747 10.79 64.2073 10.9979 64.7547 10.9979C65.3021 10.9979 65.7625 10.79 66.1386 10.3715Z" fill="black"/>
<path d="M78.0153 4.93261C78.2426 5.16015 78.3549 5.42983 78.3549 5.74165V11.8319C78.3549 12.1465 78.2426 12.4162 78.0153 12.6409C77.7879 12.8684 77.5184 12.9808 77.2068 12.9808C76.9401 12.9808 76.7015 12.8965 76.4938 12.728C76.2861 12.5594 76.1514 12.3487 76.0924 12.0931C75.7556 12.4077 75.3794 12.6493 74.9612 12.8235C74.5429 12.9977 74.1022 13.0847 73.639 13.0847C72.9541 13.0847 72.3253 12.8993 71.7527 12.5285C71.18 12.1577 70.7253 11.6437 70.3969 10.9891C70.0656 10.3346 69.9 9.5986 69.9 8.78676C69.9 7.97491 70.0656 7.24173 70.3969 6.58439C70.7281 5.92986 71.18 5.41579 71.7527 5.04498C72.3253 4.67417 72.9541 4.48877 73.639 4.48877C74.1022 4.48877 74.5429 4.57585 74.9612 4.75002C75.3794 4.92419 75.7556 5.16858 76.0924 5.4804C76.1514 5.22476 76.2833 5.01408 76.4938 4.84553C76.7015 4.67698 76.9401 4.59271 77.2068 4.59271C77.5212 4.59552 77.7907 4.70788 78.0153 4.93261ZM75.5647 10.3711C75.9408 9.95255 76.1289 9.42443 76.1289 8.78676C76.1289 8.14908 75.9408 7.62096 75.5647 7.2024C75.1885 6.78384 74.7282 6.57596 74.1808 6.57596C73.6362 6.57596 73.1759 6.78384 72.7969 7.2024C72.4208 7.62096 72.2327 8.14908 72.2327 8.78676C72.2327 9.42443 72.4208 9.95255 72.7969 10.3711C73.1731 10.7897 73.6334 10.9975 74.1808 10.9975C74.7254 10.9975 75.1885 10.7897 75.5647 10.3711Z" fill="black"/>
<path d="M81.4511 12.5315C80.8027 12.1607 80.2862 11.6466 79.9044 10.9921C79.5227 10.3375 79.3318 9.60153 79.3318 8.78968C79.3318 7.97784 79.5227 7.24466 79.9044 6.58732C80.2862 5.93279 80.8027 5.41872 81.4511 5.04791C82.0996 4.6771 82.8182 4.4917 83.607 4.4917C84.5473 4.4917 85.3979 4.76419 86.1642 5.30916C86.3045 5.40186 86.4112 5.52546 86.487 5.68277C86.5628 5.84009 86.5993 6.00583 86.5993 6.17999C86.5993 6.46933 86.4954 6.71935 86.2849 6.92722C86.0772 7.1351 85.8273 7.24185 85.5382 7.24185C85.294 7.24185 85.0807 7.166 84.8954 7.01431C84.5024 6.72497 84.0729 6.57889 83.6098 6.57889C83.0652 6.57889 82.6048 6.78677 82.2259 7.20533C81.8497 7.62389 81.6617 8.15201 81.6617 8.78968C81.6617 9.42736 81.8497 9.95548 82.2259 10.374C82.602 10.7926 83.0624 11.0005 83.6098 11.0005C84.0729 11.0005 84.5024 10.8544 84.8954 10.5651C85.0807 10.4134 85.2968 10.3375 85.5382 10.3375C85.8273 10.3375 86.0772 10.4415 86.2849 10.6521C86.4926 10.86 86.5993 11.11 86.5993 11.3994C86.5993 11.5735 86.5628 11.7393 86.487 11.8966C86.4112 12.0539 86.3045 12.1775 86.1642 12.2702C85.3979 12.8152 84.5473 13.0877 83.607 13.0877C82.8182 13.0877 82.0996 12.9023 81.4511 12.5315Z" fill="black"/>
<path d="M87.8849 3.35121C87.6295 3.10119 87.5032 2.78657 87.5032 2.40172C87.5032 2.01687 87.6295 1.70224 87.8849 1.45223C88.1404 1.20222 88.4463 1.07861 88.8056 1.07861C89.165 1.07861 89.4709 1.20222 89.7264 1.45223C89.9818 1.70224 90.1081 2.01687 90.1081 2.40172C90.1081 2.78657 89.9818 3.10119 89.7264 3.35121C89.4709 3.60122 89.165 3.72482 88.8056 3.72482C88.4492 3.72482 88.1404 3.59841 87.8849 3.35121ZM88 12.6438C87.7726 12.4163 87.6604 12.1466 87.6604 11.8348V5.74179C87.6604 5.42716 87.7726 5.15748 88 4.93275C88.2274 4.70802 88.4969 4.59285 88.8085 4.59285C89.1228 4.59285 89.3923 4.70521 89.6169 4.93275C89.8443 5.16029 89.9565 5.42997 89.9565 5.74179V11.832C89.9565 12.1466 89.8443 12.4163 89.6169 12.641C89.3895 12.8686 89.12 12.9809 88.8085 12.9809C88.4941 12.9837 88.2246 12.8686 88 12.6438Z" fill="black"/>
<path d="M93.137 12.5316C92.4885 12.1608 91.972 11.6467 91.5903 10.9922C91.2085 10.3376 91.0176 9.60164 91.0176 8.7898C91.0176 7.97796 91.2085 7.24477 91.5903 6.58743C91.972 5.9329 92.4885 5.41883 93.137 5.04803C93.7854 4.67722 94.504 4.49182 95.2928 4.49182C96.0816 4.49182 96.8002 4.67722 97.4486 5.04803C98.0971 5.41883 98.6136 5.9329 98.9953 6.58743C99.3771 7.24196 99.568 7.97796 99.568 8.7898C99.568 9.60164 99.3771 10.3348 98.9953 10.9922C98.6136 11.6467 98.0971 12.1608 97.4486 12.5316C96.8002 12.9024 96.0816 13.0878 95.2928 13.0878C94.504 13.0878 93.7854 12.9024 93.137 12.5316ZM96.6767 10.3713C97.0528 9.95278 97.2409 9.42467 97.2409 8.78699C97.2409 8.14932 97.0528 7.6212 96.6767 7.20264C96.3005 6.78407 95.8402 6.5762 95.2928 6.5762C94.7482 6.5762 94.2879 6.78407 93.9089 7.20264C93.5328 7.6212 93.3447 8.14932 93.3447 8.78699C93.3447 9.42467 93.5328 9.95278 93.9089 10.3713C94.2851 10.7899 94.7454 10.9978 95.2928 10.9978C95.8402 10.9978 96.3005 10.7899 96.6767 10.3713ZM94.6584 3.34288C94.4788 3.20242 94.3889 2.99454 94.3889 2.71644C94.3889 2.5198 94.4591 2.32316 94.5966 2.12371L95.7279 0.575874C96.0058 0.191022 96.3314 0 96.7019 0C96.9798 0 97.2213 0.103938 97.4234 0.314624C97.6255 0.5225 97.7265 0.789368 97.7265 1.11523C97.7265 1.42985 97.6002 1.70234 97.3448 1.93269L95.8654 3.2895C95.6689 3.46367 95.4528 3.55075 95.2226 3.55075C95.0261 3.55075 94.8381 3.48052 94.6584 3.34288Z" fill="black"/>
<path d="M107.562 5.38489C108.124 5.98323 108.407 6.81474 108.407 7.88221V11.8515C108.407 12.1662 108.298 12.433 108.076 12.6521C107.854 12.8741 107.588 12.9836 107.276 12.9836C106.962 12.9836 106.695 12.8741 106.476 12.6521C106.254 12.433 106.145 12.1662 106.145 11.8515V8.26706C106.145 7.7558 105.985 7.34847 105.668 7.03947C105.348 6.73327 104.958 6.57877 104.494 6.57877C104.02 6.57877 103.619 6.74732 103.293 7.08442C102.967 7.42151 102.807 7.84007 102.807 8.33729V11.8515C102.807 12.1662 102.698 12.433 102.476 12.6521C102.254 12.8741 101.988 12.9836 101.676 12.9836C101.362 12.9836 101.095 12.8741 100.876 12.6521C100.654 12.433 100.545 12.1662 100.545 11.8515V5.72479C100.545 5.41017 100.654 5.14611 100.876 4.92419C101.095 4.70507 101.362 4.59271 101.676 4.59271C101.965 4.59271 102.215 4.68541 102.423 4.87081C102.63 5.05622 102.754 5.28937 102.788 5.56748C103.391 4.84834 104.219 4.48877 105.275 4.48877C106.238 4.48877 107.001 4.78935 107.562 5.38489Z" fill="black"/>
</svg>
