<svg width="166" height="66" viewBox="0 0 166 66" fill="none" xmlns="http://www.w3.org/2000/svg">
<mask id="mask0_203_68" style="mask-type:luminance" maskUnits="userSpaceOnUse" x="64" y="41" width="102" height="25">
<path d="M163.204 46.7586L159.812 56.5705H159.737L159.292 54.9341L156.389 46.7523H153.586L158.708 59.4858L158.113 60.8463C157.881 61.3918 157.599 61.8871 157.26 62.3385C156.922 62.7899 156.483 63.0094 155.95 63.0094C155.856 63.0094 155.636 62.9968 155.279 62.9717C154.928 62.9467 154.777 62.9404 154.828 62.9467L154.571 64.8087C154.74 64.8463 154.984 64.8902 155.298 64.9341C155.611 64.978 155.868 65.0031 156.075 65.0031C157.179 65.0031 158.056 64.6771 158.708 64.0313C159.36 63.3793 159.856 62.6206 160.207 61.7492L166 46.7586H163.204ZM83.0031 48.3761C81.9373 49.6112 81.4044 51.1598 81.4044 53.0094V53.5172C81.4044 55.3855 81.9373 56.9341 82.9969 58.1692C84.0564 59.4043 85.5925 60.0188 87.5925 60.0188C89.0533 60.0188 90.3323 59.5799 91.4357 58.7084C92.5329 57.8369 93.0658 56.8401 93.022 55.7178L92.9969 55.6489H90.7398C90.7398 56.351 90.4201 56.9467 89.7931 57.4357C89.1599 57.9184 88.4263 58.163 87.5988 58.163C86.2759 58.163 85.3292 57.7178 84.7712 56.8338C84.2132 55.9498 83.931 54.8463 83.931 53.5172V53.0156C83.931 51.7178 84.2132 50.6269 84.7774 49.7366C85.3417 48.8463 86.2821 48.4012 87.5988 48.4012C88.5079 48.4012 89.2602 48.6771 89.8558 49.2351C90.4514 49.7931 90.7461 50.4639 90.7461 51.2601H93.0157L93.0408 51.1849C93.0784 49.8808 92.5831 48.7774 91.5549 47.8808C90.5329 46.9843 89.21 46.5329 87.5988 46.5329C85.5988 46.5203 84.069 47.141 83.0031 48.3761ZM97.1411 57.5109C96.7586 57.1786 96.5643 56.721 96.5643 56.1441C96.5643 55.4984 96.8652 54.9341 97.4734 54.4576C98.0815 53.9811 98.8903 53.7366 99.8997 53.7366H102.715V55.8432C102.495 56.4075 102.019 56.9153 101.292 57.3542C100.558 57.7931 99.7429 58.0125 98.8339 58.0125C98.0878 58.0188 97.5235 57.8495 97.1411 57.5109ZM96.1693 47.699C95.1724 48.4827 94.6959 49.3479 94.7461 50.2946L94.7712 50.3699H97.1661C97.1661 49.8244 97.4169 49.3605 97.9248 48.9717C98.4326 48.583 99.0846 48.3887 99.8934 48.3887C100.79 48.3887 101.492 48.6081 101.981 49.0532C102.47 49.4984 102.721 50.1003 102.721 50.8589V52.1442H99.9937C98.1693 52.1442 96.721 52.4952 95.6552 53.1974C94.5893 53.8996 94.0564 54.8714 94.0564 56.1128C94.0564 57.3291 94.4326 58.2884 95.1849 58.978C95.9373 59.6677 97.0282 60.0188 98.464 60.0188C99.3292 60.0188 100.138 59.8056 100.89 59.3855C101.643 58.9655 102.251 58.4451 102.721 57.8181C102.727 58.1253 102.759 58.4263 102.803 58.7272C102.846 59.0282 102.915 59.373 103.003 59.768H105.592C105.455 59.3479 105.361 58.9278 105.31 58.4952C105.26 58.0626 105.235 57.6175 105.235 57.1536V50.8965C105.235 49.4858 104.759 48.4075 103.806 47.6614C102.853 46.909 101.599 46.5391 100.038 46.5391C98.4514 46.5203 97.1661 46.9153 96.1693 47.699ZM123.179 51.8934C123.317 50.884 123.68 50.0501 124.276 49.3855C124.871 48.721 125.586 48.3824 126.426 48.3824C127.461 48.3824 128.245 48.6959 128.771 49.3166C129.298 49.9373 129.561 50.7147 129.561 51.6426V51.9561H123.204L123.179 51.8934ZM122.282 48.3636C121.116 49.5924 120.533 51.1347 120.533 52.9843V53.5109C120.533 55.4294 121.097 56.9968 122.232 58.2006C123.367 59.4043 124.89 60.0062 126.809 60.0062C127.956 60.0062 128.934 59.8557 129.737 59.5485C130.545 59.2413 131.191 58.8589 131.687 58.4012L130.708 56.8589C130.238 57.2601 129.687 57.5736 129.047 57.8056C128.408 58.0313 127.661 58.1441 126.815 58.1441C125.649 58.1441 124.746 57.7429 124.1 56.9404C123.455 56.1379 123.122 55.1159 123.097 53.8683L123.135 53.8056H132.075V52.326C132.075 50.5642 131.599 49.1536 130.652 48.1003C129.699 47.0407 128.295 46.5141 126.433 46.5141C124.834 46.5203 123.448 47.1347 122.282 48.3636ZM145.693 47.1661C144.978 47.5987 144.408 48.1818 143.975 48.9216C143.643 48.1191 143.147 47.5172 142.489 47.1159C141.831 46.7147 141.041 46.5141 140.125 46.5141C139.21 46.5141 138.401 46.6833 137.712 47.0219C137.022 47.3605 136.451 47.8369 136 48.4576L135.818 46.7523H133.574V59.7492H136.082V50.1379C136.345 49.5987 136.721 49.1849 137.216 48.8902C137.712 48.5956 138.339 48.4451 139.103 48.4451C140 48.4451 140.696 48.7272 141.172 49.2915C141.655 49.8557 141.893 50.746 141.893 51.9623V59.7617H144.414V51.5047V51.4106C144.508 50.5517 144.821 49.8432 145.348 49.2852C145.881 48.7272 146.571 48.4451 147.429 48.4451C148.357 48.4451 149.053 48.7084 149.517 49.2413C149.987 49.7742 150.219 50.6771 150.219 51.9623V59.7617H152.727V51.9874C152.727 50.163 152.32 48.7962 151.505 47.8871C150.69 46.978 149.58 46.5266 148.182 46.5266C147.241 46.5203 146.408 46.7398 145.693 47.1661ZM73.0408 45.3103H73.116L76.1756 53.2727H69.931L73.0408 45.3103ZM72.0063 42.2695L64.8339 59.7617H67.3919L69.1473 55.2539H76.9154L78.6458 59.7617H81.2038L74.1442 42.2695H72.0063ZM110.357 56.909C109.787 56.1191 109.505 55.0658 109.505 53.7554V53.5047C109.505 52.0062 109.793 50.7899 110.364 49.8495C110.934 48.9153 111.824 48.4451 113.034 48.4451C113.755 48.4451 114.376 48.6018 114.89 48.9216C115.404 49.2351 115.824 49.6677 116.144 50.2006V56.2633C115.824 56.8401 115.404 57.2915 114.897 57.6112C114.389 57.931 113.762 58.094 113.009 58.094C111.812 58.0877 110.928 57.6927 110.357 56.909ZM116.138 41.0156V48.163C115.699 47.6238 115.166 47.2162 114.539 46.9404C113.912 46.6583 113.197 46.5203 112.395 46.5203C110.69 46.5203 109.361 47.1598 108.414 48.4451C107.467 49.7241 106.991 51.4106 106.991 53.5047V53.7554C106.991 55.63 107.467 57.141 108.42 58.2883C109.373 59.4357 110.69 60.0125 112.37 60.0125C113.235 60.0125 113.994 59.8557 114.652 59.5423C115.304 59.2288 115.856 58.7711 116.307 58.163L116.602 59.7617H118.652V41.0156H116.138Z" fill="white"/>
</mask>
<g mask="url(#mask0_203_68)">
<path d="M115.417 -9.56104L177.987 53.0158L115.417 115.586L52.8401 53.0158L115.417 -9.56104Z" fill="url(#paint0_linear_203_68)"/>
</g>
<path d="M21.5172 20.1504C22.4451 19.5861 23.2414 18.909 23.906 18.1003C24.5705 17.2978 25.0972 16.3699 25.4734 15.3228C25.8558 14.2758 26.0439 13.0846 26.0439 11.7492C26.0439 10.2006 25.768 8.79618 25.2226 7.53599C24.6771 6.27581 23.8934 5.21625 22.8777 4.35104C21.8621 3.48584 20.6144 2.82126 19.1411 2.35104C17.6677 1.88082 16.0251 1.64258 14.2006 1.64258H0V33.5046H5.55486V22.4012H12.5831L20.4389 33.5109H27.0345L18.4326 21.4482C19.5674 21.141 20.5893 20.7084 21.5172 20.1504ZM5.56113 17.4419V6.69587H13.7367C15.837 6.69587 17.4671 7.14728 18.6207 8.04383C19.7806 8.94665 20.3574 10.2758 20.3574 12.0438C20.3574 13.6927 19.7618 14.9968 18.5768 15.9749C17.3856 16.9467 15.7931 17.4357 13.7806 17.4357H5.56113V17.4419Z" fill="black"/>
<path d="M49.3856 12.6395C48.2445 11.4984 46.8966 10.6019 45.3292 9.95608C43.768 9.30405 42.0627 8.97803 40.2069 8.97803C38.3574 8.97803 36.6458 9.31032 35.0846 9.98116C33.5235 10.652 32.1693 11.5486 31.0345 12.6896C29.8934 13.8244 28.9969 15.1661 28.3511 16.6959C27.6991 18.2257 27.373 19.8558 27.373 21.5924C27.373 23.3229 27.6928 24.9341 28.3323 26.4388C28.9718 27.9373 29.8621 29.2602 30.9969 30.4012C32.1379 31.536 33.4859 32.4326 35.047 33.0846C36.6082 33.7366 38.3072 34.0627 40.1254 34.0627C41.9749 34.0627 43.6928 33.7304 45.2665 33.0595C46.8464 32.395 48.2006 31.4859 49.3417 30.3511C50.4765 29.2163 51.3731 27.8871 52.0251 26.3699C52.6771 24.8526 53.0031 23.2288 53.0031 21.4984C53.0031 19.768 52.6897 18.1442 52.0502 16.6269C51.4107 15.1034 50.5204 13.7743 49.3856 12.6395ZM46.953 24.5642C46.6207 25.4921 46.1379 26.3009 45.5047 26.9968C44.8715 27.6928 44.1129 28.2508 43.2163 28.6583C42.326 29.0658 41.3292 29.2727 40.2132 29.2727C39.1599 29.2727 38.1818 29.0658 37.2978 28.6583C36.4075 28.2508 35.6364 27.6928 34.9906 26.9968C34.3386 26.3009 33.837 25.4733 33.4796 24.5141C33.1097 23.5611 32.9342 22.5517 32.9342 21.4859C32.9342 20.4263 33.0972 19.4294 33.4295 18.5015C33.7618 17.5736 34.2445 16.7649 34.8777 16.0689C35.511 15.373 36.2696 14.815 37.1599 14.4075C38.0502 13.9937 39.0408 13.7931 40.1254 13.7931C41.21 13.7931 42.1944 14 43.0909 14.4075C43.9812 14.815 44.7461 15.3793 45.3981 16.0877C46.0439 16.8025 46.5517 17.6301 46.9154 18.5705C47.279 19.5109 47.4608 20.5141 47.4608 21.5736C47.4546 22.6457 47.2853 23.6363 46.953 24.5642Z" fill="black"/>
<path d="M76.5643 12.6395C75.4232 11.4984 74.0753 10.6019 72.5079 9.95608C70.9467 9.30405 69.2351 8.97803 67.3856 8.97803C65.5361 8.97803 63.8308 9.31032 62.2696 9.98116C60.7085 10.652 59.3543 11.5486 58.2132 12.6896C57.0784 13.8244 56.1756 15.1661 55.5298 16.6959C54.8778 18.2257 54.5518 19.8558 54.5518 21.5924C54.5518 23.3229 54.8652 24.9341 55.511 26.4388C56.1442 27.9373 57.0345 29.2602 58.1693 30.4012C59.3104 31.536 60.6583 32.4326 62.2195 33.0846C63.7869 33.7366 65.4734 34.0627 67.2978 34.0627C69.1536 34.0627 70.8652 33.7304 72.4452 33.0595C74.0251 32.395 75.3793 31.4859 76.5204 30.3511C77.6615 29.2163 78.558 27.8871 79.2038 26.3699C79.8558 24.8526 80.1818 23.2288 80.1818 21.4984C80.1818 19.768 79.8621 18.1442 79.2289 16.6269C78.5894 15.1034 77.6991 13.7743 76.5643 12.6395ZM74.1254 24.5642C73.7931 25.4921 73.3104 26.3009 72.6771 26.9968C72.0439 27.6928 71.2853 28.2508 70.395 28.6583C69.5047 29.0658 68.5016 29.2727 67.3856 29.2727C66.3323 29.2727 65.3605 29.0658 64.4702 28.6583C63.58 28.2508 62.8088 27.6928 62.163 26.9968C61.5173 26.3009 61.0094 25.4733 60.6521 24.5141C60.2884 23.5611 60.1129 22.5517 60.1129 21.4859C60.1129 20.4263 60.2759 19.4294 60.6082 18.5015C60.9405 17.5736 61.4232 16.7649 62.0565 16.0689C62.6897 15.373 63.4483 14.815 64.3449 14.4075C65.2351 13.9937 66.2195 13.7931 67.3041 13.7931C68.3887 13.7931 69.3793 14 70.2696 14.4075C71.1599 14.815 71.9248 15.3793 72.5768 16.0877C73.2226 16.8025 73.7304 17.6301 74.0941 18.5705C74.4577 19.5109 74.6395 20.5141 74.6395 21.5736C74.627 22.6457 74.4577 23.6363 74.1254 24.5642Z" fill="black"/>
<path d="M134.652 12.6395C133.511 11.4984 132.163 10.6019 130.596 9.95608C129.034 9.30405 127.329 8.97803 125.473 8.97803C123.618 8.97803 121.912 9.31032 120.351 9.98116C118.79 10.652 117.436 11.5486 116.301 12.6896C115.16 13.8244 114.263 15.1661 113.611 16.6959C112.959 18.2257 112.633 19.8558 112.633 21.5924C112.633 23.3229 112.953 24.9341 113.592 26.4388C114.226 27.9373 115.116 29.2602 116.257 30.4012C117.392 31.536 118.746 32.4326 120.307 33.0846C121.868 33.7366 123.561 34.0627 125.386 34.0627C127.235 34.0627 128.953 33.7304 130.527 33.0595C132.107 32.395 133.467 31.4859 134.602 30.3511C135.743 29.2163 136.633 27.8871 137.285 26.3699C137.937 24.8526 138.263 23.2288 138.263 21.4984C138.263 19.768 137.944 18.1442 137.31 16.6269C136.677 15.1034 135.787 13.7743 134.652 12.6395ZM132.219 24.5642C131.887 25.4921 131.404 26.3009 130.771 26.9968C130.138 27.6928 129.379 28.2508 128.489 28.6583C127.599 29.0658 126.596 29.2727 125.48 29.2727C124.426 29.2727 123.448 29.0658 122.564 28.6583C121.674 28.2508 120.903 27.6928 120.257 26.9968C119.605 26.3009 119.103 25.4733 118.74 24.5141C118.376 23.5611 118.201 22.5517 118.201 21.4859C118.201 20.4263 118.364 19.4294 118.696 18.5015C119.028 17.5736 119.511 16.7649 120.144 16.0689C120.777 15.373 121.536 14.815 122.426 14.4075C123.317 13.9937 124.307 13.7931 125.392 13.7931C126.476 13.7931 127.461 14 128.357 14.4075C129.248 14.815 130.012 15.3793 130.665 16.0877C131.31 16.8025 131.818 17.6301 132.182 18.5705C132.545 19.5109 132.727 20.5141 132.727 21.5736C132.721 22.6457 132.552 23.6363 132.219 24.5642Z" fill="black"/>
<path d="M165.041 16.1629C164.407 14.6143 163.561 13.304 162.52 12.2256C161.473 11.1472 160.282 10.3385 158.953 9.793C157.624 9.24754 156.238 8.97168 154.821 8.97168C152.884 8.97168 151.266 9.40428 149.962 10.2695C148.658 11.1347 147.567 12.2068 146.69 13.4795V9.47325H141.135V40.7899H146.69L146.646 29.7742C147.498 30.8964 148.571 31.8808 149.875 32.7334C151.179 33.5798 152.821 34.0062 154.79 34.0062C156.213 34.0062 157.605 33.7303 158.953 33.1848C160.307 32.6394 161.505 31.8243 162.552 30.7522C163.599 29.6739 164.433 28.3635 165.06 26.8149C165.68 25.2663 165.994 23.4921 165.994 21.4921C165.994 19.4858 165.68 17.7115 165.041 16.1629ZM159.893 24.7021C159.53 25.6551 159.034 26.4701 158.414 27.1347C157.793 27.8055 157.066 28.3196 156.232 28.6833C155.398 29.0469 154.508 29.2287 153.567 29.2287C152.627 29.2287 151.73 29.0469 150.884 28.6833C150.031 28.3196 149.291 27.793 148.652 27.1096C148.019 26.4262 147.505 25.6112 147.128 24.677C146.746 23.7366 146.558 22.6707 146.558 21.4921C146.558 20.3071 146.746 19.2475 147.128 18.3008C147.505 17.3604 148.019 16.5453 148.652 15.8682C149.291 15.1848 150.031 14.6645 150.884 14.3008C151.73 13.9372 152.627 13.7554 153.567 13.7554C154.508 13.7554 155.398 13.9372 156.232 14.3008C157.066 14.6645 157.793 15.1786 158.414 15.8494C159.034 16.514 159.53 17.329 159.893 18.282C160.257 19.235 160.439 20.3071 160.439 21.4921C160.445 22.6707 160.257 23.7428 159.893 24.7021Z" fill="black"/>
<path d="M108.502 29.2288C106.376 29.2288 105.317 28.0125 105.317 25.5862L105.361 14.1567H111.505V9.46708H105.379L105.404 2.87147H99.8495V9.46708H89.743L89.7367 8.33229C89.7367 5.90596 90.8025 4.68966 92.9216 4.68966C93.5298 4.68966 94.0815 4.73981 94.5831 4.8464C95.0847 4.95298 95.605 5.09718 96.1505 5.279V0.639498C95.5423 0.45768 94.8903 0.30721 94.1944 0.181818C93.4922 0.0626959 92.6646 0 91.6928 0C89.3166 0 87.4796 0.639499 86.1944 1.93103C84.9091 3.22257 84.2633 5.20376 84.2633 7.87461V9.46708H81.2163V14.1567H84.2633V33.5047H89.8119L89.743 14.1567H99.8307V26.0376C99.8307 28.7085 100.47 30.6897 101.762 31.9749C103.047 33.2665 104.878 33.9122 107.254 33.9122C108.226 33.9122 109.06 33.8495 109.756 33.7304C110.458 33.605 111.11 33.4545 111.712 33.2727V28.627C111.172 28.8088 110.646 28.953 110.144 29.0596C109.668 29.1787 109.11 29.2288 108.502 29.2288Z" fill="black"/>
<defs>
<linearGradient id="paint0_linear_203_68" x1="88.3619" y1="25.9637" x2="142.594" y2="80.1953" gradientUnits="userSpaceOnUse">
<stop stop-color="#6100FF"/>
<stop offset="1" stop-color="#2400FF"/>
</linearGradient>
</defs>
</svg>
