<svg width="166" height="64" viewBox="0 0 166 64" fill="none" xmlns="http://www.w3.org/2000/svg">
<path d="M70.7521 41.6015L76.6631 55.5886H76.7349L82.6459 41.6015H85.8527V58.8192H83.3399V52.0111L83.5912 45.0116L83.5314 44.9996L77.5246 58.8311H75.8614L69.8786 45.0355L69.8188 45.0475L70.0581 52.0111V58.8192H67.5453V41.6015H70.7521ZM97.1483 58.8192C97.0645 58.4363 96.9927 58.0893 96.9568 57.8021C96.909 57.503 96.885 57.2039 96.8731 56.9048C96.4064 57.515 95.7962 58.0295 95.0423 58.4482C94.2885 58.867 93.4868 59.0704 92.6133 59.0704C91.1774 59.0704 90.0885 58.7234 89.3347 58.0534C88.5809 57.3714 88.2099 56.4262 88.2099 55.2297C88.2099 54.0092 88.7484 53.052 89.8134 52.3581C90.8783 51.6641 92.3261 51.3171 94.1449 51.3171H96.8731V50.0488C96.8731 49.295 96.6218 48.7087 96.1312 48.266C95.6406 47.8233 94.9466 47.608 94.0372 47.608C93.2355 47.608 92.5774 47.7994 92.0629 48.1823C91.5603 48.5652 91.3091 49.0198 91.3091 49.5583H88.9159L88.892 49.4865C88.8441 48.5532 89.3108 47.7037 90.3159 46.926C91.3091 46.1482 92.6013 45.7654 94.1808 45.7654C95.7483 45.7654 97.0047 46.1363 97.95 46.8661C98.8953 47.608 99.3739 48.6609 99.3739 50.0488V56.2108C99.3739 56.6655 99.3978 57.1082 99.4457 57.5389C99.4936 57.9697 99.5893 58.3884 99.7209 58.7952H97.1483V58.8192ZM92.9842 57.1082C93.8936 57.1082 94.7073 56.8928 95.4372 56.4621C96.1671 56.0313 96.6457 55.5288 96.8611 54.9784V52.9085H94.0492C93.0441 52.9085 92.2304 53.1478 91.6202 53.6144C91.0099 54.081 90.7108 54.6434 90.7108 55.2775C90.7108 55.8399 90.9022 56.2946 91.2851 56.6176C91.68 56.9407 92.2424 57.1082 92.9842 57.1082ZM105.034 42.9297V46.0166H107.642V47.7396H105.034V55.5049C105.034 56.1031 105.165 56.5219 105.44 56.7732C105.704 57.0125 106.063 57.1441 106.505 57.1441C106.649 57.1441 106.805 57.1321 106.984 57.0962C107.164 57.0603 107.307 57.0244 107.451 56.9766L107.786 58.5679C107.594 58.7115 107.331 58.8311 106.96 58.9149C106.601 59.0106 106.242 59.0465 105.871 59.0465C104.854 59.0465 104.041 58.7593 103.442 58.185C102.844 57.6107 102.533 56.7133 102.533 55.4929V47.7276H100.343V46.0047H102.533V42.9177H105.034V42.9297ZM115.037 57.2398C115.875 57.2398 116.604 57.0005 117.239 56.5219C117.873 56.0433 118.184 55.457 118.184 54.763H120.433L120.457 54.8348C120.505 55.9356 119.967 56.9167 118.866 57.7782C117.765 58.6397 116.485 59.0704 115.025 59.0704C113.027 59.0704 111.483 58.4602 110.43 57.2517C109.365 56.0433 108.839 54.5118 108.839 52.6692V52.1666C108.839 50.3479 109.377 48.8284 110.442 47.608C111.507 46.3875 113.039 45.7773 115.037 45.7773C116.652 45.7773 117.969 46.22 118.998 47.1054C120.027 47.9908 120.517 49.0677 120.481 50.3599L120.457 50.4317H118.196C118.196 49.654 117.897 48.9839 117.298 48.4335C116.7 47.8832 115.958 47.608 115.049 47.608C113.733 47.608 112.787 48.0507 112.225 48.9241C111.663 49.7976 111.375 50.8744 111.375 52.1547V52.6452C111.375 53.9494 111.651 55.0382 112.213 55.9117C112.775 56.7971 113.709 57.2398 115.037 57.2398ZM124.49 47.7396C124.968 47.1294 125.555 46.6508 126.237 46.3038C126.931 45.9568 127.697 45.7893 128.534 45.7893C130.006 45.7893 131.143 46.1961 131.968 47.0217C132.794 47.8473 133.201 49.1036 133.201 50.8026V58.8192H130.688V50.7787C130.688 49.7258 130.449 48.9361 129.958 48.4335C129.467 47.931 128.738 47.6798 127.768 47.6798C127.074 47.6798 126.44 47.8353 125.878 48.1344C125.315 48.4335 124.849 48.8523 124.478 49.3668V58.8192H121.965V40.3691H124.478V47.7396H124.49ZM138.214 42.7502H135.702V40.3691H138.214V42.7502ZM138.214 58.8192H135.702V46.0166H138.214V58.8192ZM143.013 46.0166L143.192 47.9191C143.647 47.237 144.221 46.7106 144.915 46.3397C145.609 45.9688 146.399 45.7773 147.272 45.7773C148.756 45.7773 149.905 46.1841 150.718 46.9858C151.532 47.7994 151.939 49.0438 151.939 50.7308V58.8072H149.426V50.7787C149.426 49.654 149.187 48.8523 148.708 48.3737C148.23 47.9071 147.5 47.6678 146.507 47.6678C145.789 47.6678 145.142 47.8353 144.592 48.1584C144.03 48.4814 143.587 48.9241 143.264 49.4865V58.8192H140.751V46.0166H143.013ZM153.746 52.6572C153.746 50.5992 154.224 48.9361 155.194 47.6798C156.163 46.4234 157.503 45.7893 159.202 45.7893C160.076 45.7893 160.841 45.9568 161.511 46.2799C162.17 46.6029 162.732 47.0815 163.163 47.6917L163.474 46.0286H165.472V58.9029C165.472 60.5421 164.958 61.7984 163.929 62.6839C162.9 63.5573 161.416 64 159.477 64C158.819 64 158.101 63.9163 157.335 63.7487C156.57 63.5812 155.888 63.3539 155.301 63.0548L155.935 61.2481C156.39 61.4874 156.929 61.6788 157.563 61.8224C158.197 61.966 158.831 62.0377 159.453 62.0377C160.674 62.0377 161.571 61.7745 162.122 61.26C162.684 60.7455 162.959 59.9558 162.959 58.9029V57.4552C162.505 57.9936 161.966 58.4004 161.344 58.6636C160.71 58.9388 159.992 59.0704 159.178 59.0704C157.491 59.0704 156.163 58.5081 155.194 57.3714C154.224 56.2347 153.746 54.7511 153.746 52.9085V52.6572ZM156.247 52.9085C156.247 54.1887 156.534 55.2297 157.12 56.0074C157.706 56.7851 158.604 57.18 159.8 57.18C160.554 57.18 161.188 57.0244 161.703 56.7014C162.217 56.3783 162.636 55.9356 162.959 55.3493V49.4625C162.636 48.9241 162.217 48.4814 161.703 48.1703C161.188 47.8473 160.566 47.6917 159.836 47.6917C158.64 47.6917 157.742 48.1584 157.144 49.0916C156.546 50.0249 156.247 51.2214 156.247 52.6811V52.9085Z" fill="url(#paint0_linear_203_122)"/>
<path d="M21.5142 19.8277C22.4476 19.2773 23.2373 18.6072 23.9074 17.8056C24.5774 17.0159 25.092 16.1066 25.4749 15.0776C25.8578 14.0486 26.0492 12.876 26.0492 11.5599C26.0492 10.0403 25.774 8.65236 25.2236 7.408C24.6851 6.16364 23.8954 5.12269 22.8783 4.27317C21.8612 3.42366 20.6168 2.76558 19.145 2.29895C17.6733 1.83232 16.034 1.60498 14.2032 1.60498H0V32.9772H5.55206V22.0412H12.5759L20.4373 32.9772H27.0304L18.4271 21.096C19.5638 20.7968 20.5809 20.3781 21.5142 19.8277ZM5.56403 17.1595V6.58242H13.7366C15.8306 6.58242 17.4698 7.02512 18.6185 7.91053C19.7792 8.79594 20.3536 10.1121 20.3536 11.847C20.3536 13.4623 19.7553 14.7545 18.5707 15.7237C17.3861 16.6809 15.7827 17.1595 13.7725 17.1595H5.56403Z" fill="black"/>
<path d="M49.3812 12.4337C48.2444 11.309 46.8923 10.4356 45.3248 9.78948C43.7573 9.14337 42.0582 8.82031 40.2035 8.82031C38.3488 8.82031 36.6378 9.14337 35.0822 9.80144C33.5147 10.4595 32.1746 11.3449 31.0378 12.4696C29.9011 13.5943 29.0037 14.9105 28.3456 16.4181C27.6875 17.9257 27.3644 19.529 27.3644 21.24C27.3644 22.939 27.6874 24.5303 28.3216 26.014C28.9558 27.4977 29.8532 28.7899 30.99 29.9146C32.1267 31.0393 33.4788 31.9127 35.0463 32.5588C36.6138 33.205 38.301 33.528 40.1198 33.528C41.9744 33.528 43.6855 33.193 45.265 32.5469C46.8444 31.8888 48.1966 31.0034 49.3453 29.8787C50.482 28.754 51.3794 27.4498 52.0256 25.9542C52.6837 24.4586 53.0068 22.8672 53.0068 21.1562C53.0068 19.4572 52.6956 17.8539 52.0495 16.3583C51.4034 14.8507 50.5179 13.5465 49.3812 12.4337ZM46.9521 24.1714C46.6171 25.0807 46.1385 25.8824 45.5043 26.5644C44.8701 27.2464 44.1163 27.7968 43.2189 28.2036C42.3334 28.6104 41.3283 28.8138 40.2155 28.8138C39.1625 28.8138 38.1813 28.6104 37.2959 28.2036C36.4104 27.7968 35.6326 27.2584 34.9865 26.5644C34.3403 25.8824 33.8378 25.0568 33.4788 24.1235C33.1079 23.1783 32.9404 22.1852 32.9404 21.1443C32.9404 20.1033 33.1079 19.1222 33.4429 18.2128C33.778 17.3035 34.2566 16.5018 34.8908 15.8198C35.525 15.1378 36.2788 14.5874 37.1762 14.1806C38.0617 13.7738 39.0548 13.5704 40.1437 13.5704C41.2326 13.5704 42.2137 13.7738 43.1112 14.1806C43.9966 14.5874 44.7624 15.1378 45.4205 15.8438C46.0667 16.5497 46.5692 17.3633 46.9402 18.2846C47.2991 19.2059 47.4786 20.199 47.4786 21.24C47.4427 22.2809 47.2752 23.2621 46.9521 24.1714Z" fill="black"/>
<path d="M76.5571 12.4337C75.4203 11.309 74.0682 10.4356 72.5007 9.78948C70.9332 9.14337 69.2341 8.82031 67.3794 8.82031C65.5247 8.82031 63.8256 9.14337 62.2581 9.80144C60.6906 10.4595 59.3385 11.3449 58.2018 12.4696C57.065 13.5943 56.1676 14.9105 55.5215 16.4181C54.8634 17.9257 54.5403 19.529 54.5403 21.24C54.5403 22.939 54.8514 24.5303 55.4975 26.014C56.1317 27.4977 57.0172 28.7899 58.1539 29.9146C59.2906 31.0393 60.6428 31.9127 62.2103 32.5588C63.7778 33.205 65.4649 33.528 67.2837 33.528C69.1384 33.528 70.8495 33.193 72.4289 32.5469C74.0084 31.8888 75.3605 31.0034 76.4972 29.8787C77.634 28.754 78.5314 27.4498 79.1776 25.9542C79.8237 24.4586 80.1587 22.8672 80.1587 21.1562C80.1587 19.4572 79.8357 17.8539 79.2015 16.3583C78.5793 14.8507 77.6938 13.5465 76.5571 12.4337ZM74.128 24.1714C73.793 25.0807 73.3144 25.8824 72.6802 26.5644C72.046 27.2464 71.2922 27.7968 70.3948 28.2036C69.5093 28.6104 68.5042 28.8138 67.3914 28.8138C66.3384 28.8138 65.3572 28.6104 64.4718 28.2036C63.5863 27.7968 62.8085 27.2584 62.1624 26.5644C61.5163 25.8824 61.0137 25.0568 60.6547 24.1235C60.2958 23.1783 60.1163 22.1852 60.1163 21.1443C60.1163 20.1033 60.2838 19.1222 60.6069 18.2128C60.9419 17.3035 61.4205 16.5018 62.0547 15.8198C62.6889 15.1378 63.4427 14.5874 64.3402 14.1806C65.2256 13.7738 66.2188 13.5704 67.2957 13.5704C68.3845 13.5704 69.3657 13.7738 70.2631 14.1806C71.1486 14.5874 71.9144 15.1378 72.5725 15.8438C73.2187 16.5497 73.7212 17.3633 74.0922 18.2846C74.4511 19.2059 74.6306 20.199 74.6306 21.24C74.6186 22.2809 74.4511 23.2621 74.128 24.1714Z" fill="black"/>
<path d="M134.65 12.4337C133.513 11.309 132.161 10.4356 130.593 9.78948C129.026 9.14337 127.327 8.82031 125.472 8.82031C123.618 8.82031 121.906 9.14337 120.351 9.80144C118.783 10.4595 117.431 11.3449 116.295 12.4696C115.158 13.5943 114.26 14.9105 113.602 16.4181C112.944 17.9257 112.621 19.529 112.621 21.24C112.621 22.939 112.944 24.5303 113.578 26.014C114.213 27.4977 115.098 28.7899 116.235 29.9146C117.371 31.0393 118.724 31.9127 120.291 32.5588C121.859 33.205 123.546 33.528 125.364 33.528C127.219 33.528 128.93 33.193 130.51 32.5469C132.089 31.8888 133.441 31.0034 134.59 29.8787C135.727 28.754 136.624 27.4498 137.27 25.9542C137.928 24.4586 138.251 22.8672 138.251 21.1562C138.251 19.4572 137.94 17.8539 137.294 16.3583C136.672 14.8507 135.787 13.5465 134.65 12.4337ZM132.221 24.1714C131.886 25.0807 131.407 25.8824 130.773 26.5644C130.139 27.2464 129.385 27.7968 128.488 28.2036C127.602 28.6104 126.597 28.8138 125.484 28.8138C124.431 28.8138 123.45 28.6104 122.565 28.2036C121.679 27.7968 120.901 27.2584 120.255 26.5644C119.609 25.8824 119.106 25.0568 118.736 24.1235C118.377 23.1783 118.197 22.1852 118.197 21.1443C118.197 20.1033 118.365 19.1222 118.7 18.2128C119.035 17.3035 119.513 16.5018 120.147 15.8198C120.782 15.1378 121.535 14.5874 122.433 14.1806C123.318 13.7738 124.312 13.5704 125.4 13.5704C126.489 13.5704 127.47 13.7738 128.368 14.1806C129.253 14.5874 130.019 15.1378 130.677 15.8438C131.323 16.5497 131.826 17.3633 132.197 18.2846C132.556 19.2059 132.735 20.199 132.735 21.24C132.723 22.2809 132.556 23.2621 132.221 24.1714Z" fill="black"/>
<path d="M165.043 15.9019C164.409 14.3823 163.559 13.0901 162.518 12.0252C161.477 10.9603 160.281 10.1706 158.952 9.63222C157.624 9.0938 156.236 8.83057 154.824 8.83057C152.886 8.83057 151.27 9.24934 149.966 10.1108C148.662 10.9603 147.573 12.0133 146.7 13.2696V9.32113H141.147V40.1549H146.7L146.652 29.3146C147.501 30.4154 148.578 31.3846 149.882 32.2221C151.187 33.0597 152.826 33.4785 154.8 33.4785C156.224 33.4785 157.612 33.2152 158.964 32.6768C160.316 32.1384 161.513 31.3367 162.566 30.2838C163.619 29.2189 164.445 27.9267 165.067 26.4071C165.689 24.8876 166 23.1407 166 21.1665C166 19.1683 165.677 17.4214 165.043 15.9019ZM159.898 24.3013C159.527 25.2465 159.036 26.0362 158.414 26.6943C157.792 27.3524 157.062 27.8549 156.224 28.2139C155.387 28.5728 154.501 28.7523 153.556 28.7523C152.611 28.7523 151.725 28.5728 150.876 28.2139C150.026 27.8549 149.284 27.3404 148.638 26.6704C148.004 26.0003 147.489 25.1987 147.118 24.2774C146.735 23.3561 146.544 22.3031 146.544 21.1425C146.544 19.9819 146.735 18.929 147.118 18.0077C147.489 17.0864 148.004 16.2848 148.638 15.6147C149.272 14.9447 150.014 14.4302 150.876 14.0712C151.725 13.7123 152.623 13.5328 153.556 13.5328C154.501 13.5328 155.387 13.7123 156.224 14.0712C157.062 14.4302 157.792 14.9327 158.414 15.5908C159.036 16.2489 159.527 17.0505 159.898 17.9838C160.257 18.929 160.448 19.9819 160.448 21.1425C160.436 22.3031 160.257 23.368 159.898 24.3013Z" fill="black"/>
<path d="M108.505 28.7638C106.387 28.7638 105.322 27.5673 105.322 25.1743L105.37 13.9272H111.508V9.30876H105.382L105.406 2.81177H99.8535V9.30876H89.7426V8.18405C89.7426 5.79105 90.8075 4.59456 92.9254 4.59456C93.5357 4.59456 94.0861 4.64242 94.5886 4.7501C95.0912 4.85779 95.6057 4.9894 96.1562 5.16888V0.62218C95.5459 0.442705 94.8998 0.299125 94.2057 0.179476C93.4998 0.0598256 92.6741 0 91.7049 0C89.3238 0 87.493 0.634145 86.2127 1.90243C84.9204 3.17072 84.2862 5.12102 84.2862 7.75331V9.32073H81.235V13.9392H84.2862V32.9875H89.8383L89.7665 13.9392H99.8535V25.641C99.8535 28.2733 100.5 30.2236 101.78 31.4918C103.06 32.7601 104.891 33.3943 107.272 33.3943C108.241 33.3943 109.079 33.3345 109.773 33.2148C110.479 33.0952 111.125 32.9396 111.735 32.7721V28.2015C111.197 28.381 110.67 28.5245 110.168 28.6322C109.665 28.716 109.103 28.7638 108.505 28.7638Z" fill="black"/>
<defs>
<linearGradient id="paint0_linear_203_122" x1="86.6136" y1="22.5283" x2="145.352" y2="81.2694" gradientUnits="userSpaceOnUse">
<stop stop-color="#FF6107"/>
<stop offset="1" stop-color="#F428FF"/>
</linearGradient>
</defs>
</svg>
