<svg width="166" height="60" viewBox="0 0 166 60" fill="none" xmlns="http://www.w3.org/2000/svg">
<mask id="mask0_203_28" style="mask-type:luminance" maskUnits="userSpaceOnUse" x="79" y="41" width="87" height="19">
<path d="M123.361 59.7491H125.868V46.7473H123.361V59.7491ZM105.022 57.5048C104.64 57.1663 104.445 56.7149 104.445 56.1382C104.445 55.4925 104.746 54.9283 105.354 54.4456C105.962 53.9691 106.771 53.7246 107.781 53.7246H110.596V55.831C110.376 56.3952 109.9 56.903 109.172 57.3418C108.439 57.7807 107.624 58.0001 106.715 58.0001C105.962 58.0063 105.398 57.8371 105.022 57.5048ZM104.044 47.6877C103.047 48.4713 102.577 49.3364 102.627 50.283L102.652 50.352H105.047C105.047 49.8066 105.298 49.3427 105.806 48.954C106.314 48.5653 106.966 48.371 107.774 48.371C108.671 48.371 109.373 48.5904 109.862 49.0355C110.357 49.4806 110.602 50.0824 110.602 50.8409V52.1261H107.875C106.05 52.1261 104.602 52.4771 103.536 53.1792C102.47 53.8814 101.937 54.8531 101.937 56.0943C101.937 57.3105 102.314 58.2634 103.066 58.9592C103.818 59.6488 104.909 59.9999 106.345 59.9999C107.21 59.9999 108.019 59.793 108.771 59.3667C109.524 58.9467 110.132 58.4264 110.602 57.7995C110.608 58.1066 110.64 58.4075 110.683 58.7085C110.727 59.0094 110.796 59.3542 110.878 59.7491H113.461C113.323 59.3354 113.235 58.9091 113.179 58.4765C113.129 58.044 113.103 57.5989 113.103 57.135V50.8785C113.103 49.468 112.627 48.3898 111.674 47.6438C110.721 46.8978 109.467 46.5216 107.906 46.5216C106.332 46.5091 105.041 46.904 104.044 47.6877ZM131.273 56.7902C130.658 55.8937 130.351 54.759 130.351 53.3799V53.1166C130.351 51.7562 130.658 50.6278 131.273 49.7188C131.887 48.8161 132.796 48.3647 133.994 48.3647C135.198 48.3647 136.113 48.8161 136.74 49.7188C137.367 50.6215 137.674 51.7562 137.674 53.1166V53.3799C137.674 54.759 137.367 55.8937 136.746 56.7902C136.125 57.6866 135.216 58.1317 134.019 58.1317C132.809 58.138 131.893 57.6866 131.273 56.7902ZM129.498 48.3772C128.395 49.6185 127.843 51.2045 127.843 53.1291V53.3924C127.843 55.3232 128.395 56.903 129.505 58.1443C130.614 59.3792 132.119 59.9999 134.019 59.9999C135.925 59.9999 137.423 59.3855 138.527 58.1505C139.63 56.9155 140.182 55.3295 140.182 53.3924V53.1291C140.182 51.1983 139.63 49.6122 138.52 48.371C137.411 47.1297 135.9 46.5091 133.994 46.5091C132.1 46.5091 130.602 47.1297 129.498 48.3772ZM146.094 47.0796C145.404 47.462 144.828 47.9948 144.37 48.6844L144.194 46.7473H141.95V59.7428H144.458V50.2705C144.79 49.7 145.235 49.2549 145.787 48.9226C146.345 48.5966 146.984 48.4274 147.705 48.4274C148.69 48.4274 149.423 48.6656 149.9 49.1483C150.376 49.631 150.621 50.4397 150.621 51.5869V59.7428H153.129V51.5431C153.129 49.8316 152.721 48.559 151.906 47.7441C151.091 46.9228 149.937 46.5154 148.458 46.5154C147.58 46.5091 146.79 46.7034 146.094 47.0796ZM156.846 47.625C155.893 48.371 155.423 49.2674 155.423 50.3206C155.423 51.3362 155.843 52.1386 156.69 52.7279C157.536 53.3172 158.796 53.7811 160.464 54.1259C161.636 54.3703 162.433 54.665 162.853 55.0035C163.273 55.342 163.48 55.7683 163.48 56.2886C163.48 56.8403 163.229 57.2854 162.721 57.6302C162.219 57.9687 161.517 58.138 160.627 58.138C159.793 58.138 159.066 57.9436 158.451 57.5612C157.831 57.1726 157.498 56.5645 157.461 55.7244H155.066L155.041 55.7997C154.991 56.9218 155.467 57.8998 156.483 58.7398C157.492 59.5798 158.878 59.9999 160.633 59.9999C162.232 59.9999 163.524 59.6425 164.514 58.9341C165.505 58.2195 166 57.2854 166 56.1382C166 55.1226 165.574 54.3077 164.727 53.7058C163.875 53.104 162.583 52.6213 160.84 52.2703C159.668 52.0383 158.89 51.775 158.508 51.4804C158.125 51.1857 157.937 50.7782 157.937 50.2642C157.937 49.7439 158.157 49.2988 158.589 48.9289C159.022 48.559 159.687 48.3772 160.577 48.3772C161.411 48.3772 162.075 48.6029 162.583 49.0543C163.091 49.5056 163.342 50.0197 163.342 50.5839H165.737L165.762 50.5149C165.806 49.3991 165.354 48.4587 164.408 47.6814C163.461 46.904 162.182 46.5154 160.577 46.5154C159.041 46.5091 157.799 46.879 156.846 47.625ZM95.4985 43.6128V46.7473H93.3041V48.5026H95.4985V56.3952C95.4985 57.6365 95.7994 58.5455 96.4013 59.1285C97.0032 59.7115 97.8119 59.9999 98.8339 59.9999C99.1975 59.9999 99.5612 59.956 99.9248 59.8619C100.288 59.7679 100.558 59.6551 100.746 59.5109L100.414 57.8872C100.276 57.9374 100.125 57.975 99.9499 58.0063C99.7743 58.0377 99.6176 58.0565 99.4734 58.0565C99.0283 58.0565 98.6772 57.9311 98.4076 57.6866C98.138 57.4359 98.0063 57.0096 98.0063 56.4015V48.5026H100.621V46.7473H98.0063V43.6128H95.4985ZM116.251 43.6128V46.7473H114.063V48.5026H116.251V56.3952C116.251 57.6365 116.552 58.5455 117.154 59.1285C117.756 59.7115 118.564 59.9999 119.586 59.9999C119.95 59.9999 120.314 59.956 120.677 59.8619C121.041 59.7679 121.31 59.6551 121.498 59.5109L121.166 57.8872C121.028 57.9374 120.878 57.975 120.702 58.0063C120.527 58.0377 120.37 58.0565 120.226 58.0565C119.781 58.0565 119.43 57.9311 119.16 57.6866C118.89 57.4359 118.759 57.0096 118.759 56.4015V48.5026H121.373V46.7473H118.759V43.6128H116.251ZM81.4922 43.3746C80.3072 44.2899 79.7179 45.4308 79.7179 46.7975C79.7179 48.0951 80.2696 49.1797 81.3668 50.0385C82.464 50.8974 84 51.5493 85.9561 51.9881C87.58 52.3517 88.7085 52.8031 89.3417 53.3422C89.9812 53.8814 90.2947 54.5459 90.2947 55.342C90.2947 56.2009 89.9248 56.8842 89.185 57.3857C88.4452 57.8872 87.442 58.138 86.1756 58.138C84.884 58.138 83.7994 57.8496 82.9279 57.2603C82.0502 56.6773 81.6176 55.8247 81.6176 54.7026H79.2226L79.1975 54.7778C79.1536 56.3639 79.8433 57.6302 81.2665 58.5768C82.6897 59.5297 84.3261 59.9999 86.1756 59.9999C88.1442 59.9999 89.743 59.5736 90.9656 58.7147C92.1881 57.8559 92.8025 56.7212 92.8025 55.317C92.8025 54.0068 92.2947 52.9034 91.2728 52.0132C90.2508 51.123 88.7649 50.4523 86.8151 49.9946C85.1913 49.6059 84.0188 49.1609 83.2978 48.6531C82.5768 48.1453 82.2132 47.5121 82.2132 46.7473C82.2132 45.8885 82.5455 45.1989 83.2163 44.666C83.8809 44.1332 84.8402 43.8636 86.0878 43.8636C87.4295 43.8636 88.4577 44.1833 89.1787 44.8102C89.8935 45.4434 90.2571 46.2709 90.2571 47.299H92.6521L92.6771 47.2238C92.721 45.8383 92.138 44.6221 90.9405 43.569C89.7367 42.522 88.1254 41.9955 86.0941 41.9955C84.2132 42.0017 82.6772 42.4594 81.4922 43.3746ZM123.361 43.4248H125.868V41.0112H123.361V43.4248Z" fill="white"/>
</mask>
<g mask="url(#mask0_203_28)">
<path d="M122.583 -2.40088L175.492 50.5027L122.583 103.406L69.6677 50.5027L122.583 -2.40088Z" fill="url(#paint0_linear_203_28)"/>
</g>
<path d="M21.5172 20.1422C22.4451 19.5779 23.2414 18.9009 23.906 18.0922C24.5705 17.2898 25.0972 16.362 25.4734 15.3151C25.8558 14.2682 26.0439 13.0771 26.0439 11.7418C26.0439 10.1933 25.768 8.7891 25.2226 7.52904C24.6771 6.26898 23.8934 5.20953 22.8777 4.34441C21.8621 3.4793 20.6144 2.81479 19.1411 2.34462C17.6677 1.87445 16.0251 1.63623 14.2006 1.63623H0V33.495H5.55486V22.3927H12.5831L20.4389 33.5013H27.0345L18.4326 21.4398C19.5674 21.1327 20.5893 20.7001 21.5172 20.1422ZM5.56113 17.434V6.689H13.7367C15.837 6.689 17.4671 7.14036 18.6207 8.03682C19.7806 8.93328 20.3574 10.2686 20.3574 12.0364C20.3574 13.6851 19.7618 14.9891 18.5768 15.967C17.3856 16.9387 15.7931 17.4277 13.7806 17.4277H5.56113V17.434Z" fill="black"/>
<path d="M49.3856 12.6322C48.2445 11.4912 46.8966 10.5948 45.3292 9.9428C43.768 9.29083 42.0627 8.96484 40.2069 8.96484C38.3574 8.96484 36.6458 9.2971 35.0846 9.96788C33.5235 10.6324 32.1693 11.5351 31.0345 12.6761C29.8934 13.8107 28.9969 15.1523 28.3511 16.6819C27.6991 18.2115 27.373 19.8415 27.373 21.5717C27.373 23.3019 27.6928 24.913 28.3323 26.4176C28.9718 27.9159 29.8621 29.2386 30.9969 30.3796C32.1379 31.5205 33.4859 32.4107 35.047 33.0627C36.6082 33.7146 38.3072 34.0406 40.1254 34.0406C41.9749 34.0406 43.6928 33.7021 45.2665 33.0376C46.8464 32.3731 48.2006 31.4641 49.3417 30.3294C50.4765 29.1947 51.373 27.8657 52.0251 26.3486C52.6771 24.8315 53.0031 23.2079 53.0031 21.4777C53.0031 19.7474 52.6897 18.1238 52.0502 16.6067C51.4107 15.0959 50.5204 13.7669 49.3856 12.6322ZM46.953 24.5557C46.6207 25.4835 46.1379 26.2922 45.5047 26.9881C44.8715 27.6839 44.1129 28.2418 43.2163 28.6493C42.326 29.0568 41.3292 29.2637 40.2132 29.2637C39.1599 29.2637 38.1818 29.0568 37.2978 28.6493C36.4075 28.2418 35.6364 27.6839 34.9906 26.9881C34.3386 26.2922 33.837 25.4647 33.4796 24.5056C33.1097 23.5527 32.9342 22.5434 32.9342 21.4777C32.9342 20.4182 33.0972 19.4214 33.4295 18.4936C33.7618 17.5658 34.2445 16.7571 34.8777 16.0613C35.511 15.3654 36.2696 14.8075 37.1599 14.4C38.0502 13.9863 39.0408 13.7857 40.1254 13.7857C41.21 13.7857 42.1944 13.9925 43.0909 14.4C43.9812 14.8075 44.7461 15.3717 45.3981 16.0864C46.0439 16.801 46.5517 17.6285 46.9154 18.5689C47.279 19.5092 47.4608 20.5122 47.4608 21.5717C47.4546 22.6374 47.2853 23.6279 46.953 24.5557Z" fill="black"/>
<path d="M76.5643 12.6322C75.4232 11.4912 74.0753 10.5948 72.5079 9.9428C70.9467 9.29083 69.2351 8.96484 67.3856 8.96484C65.5361 8.96484 63.8308 9.2971 62.2696 9.96788C60.7085 10.6324 59.3543 11.5351 58.2132 12.6761C57.0784 13.8107 56.1756 15.1523 55.5298 16.6819C54.8778 18.2115 54.5518 19.8415 54.5518 21.5717C54.5518 23.3019 54.8652 24.913 55.511 26.4176C56.1442 27.9159 57.0345 29.2386 58.1693 30.3796C59.3104 31.5205 60.6583 32.4107 62.2195 33.0627C63.7869 33.7146 65.4734 34.0406 67.2978 34.0406C69.1536 34.0406 70.8652 33.7021 72.4452 33.0376C74.0251 32.3731 75.3793 31.4641 76.5204 30.3294C77.6615 29.1947 78.558 27.8657 79.2038 26.3486C79.8558 24.8315 80.1818 23.2079 80.1818 21.4777C80.1818 19.7474 79.8621 18.1238 79.2289 16.6067C78.5894 15.0959 77.6991 13.7669 76.5643 12.6322ZM74.1254 24.5557C73.7931 25.4835 73.3104 26.2922 72.6771 26.9881C72.0439 27.6839 71.2853 28.2418 70.395 28.6493C69.5047 29.0568 68.5016 29.2637 67.3856 29.2637C66.3323 29.2637 65.3605 29.0568 64.4702 28.6493C63.58 28.2418 62.8088 27.6839 62.163 26.9881C61.5173 26.2922 61.0094 25.4647 60.6521 24.5056C60.2884 23.5527 60.1129 22.5434 60.1129 21.4777C60.1129 20.4182 60.2759 19.4214 60.6082 18.4936C60.9405 17.5658 61.4232 16.7571 62.0565 16.0613C62.6897 15.3654 63.4483 14.8075 64.3449 14.4C65.2351 13.9863 66.2195 13.7857 67.3041 13.7857C68.3887 13.7857 69.3793 13.9925 70.2696 14.4C71.1599 14.8075 71.9248 15.3717 72.5768 16.0864C73.2226 16.801 73.7304 17.6285 74.0941 18.5689C74.4577 19.5092 74.6395 20.5122 74.6395 21.5717C74.627 22.6374 74.4577 23.6279 74.1254 24.5557Z" fill="black"/>
<path d="M134.652 12.6322C133.511 11.4912 132.163 10.5948 130.596 9.9428C129.034 9.29083 127.329 8.96484 125.473 8.96484C123.618 8.96484 121.912 9.2971 120.351 9.96788C118.79 10.6324 117.436 11.5351 116.301 12.6761C115.16 13.8107 114.263 15.1523 113.611 16.6819C112.959 18.2115 112.633 19.8415 112.633 21.5717C112.633 23.3019 112.953 24.913 113.592 26.4176C114.226 27.9159 115.116 29.2386 116.257 30.3796C117.392 31.5205 118.746 32.4107 120.307 33.0627C121.868 33.7146 123.561 34.0406 125.386 34.0406C127.235 34.0406 128.953 33.7021 130.527 33.0376C132.107 32.3731 133.467 31.4641 134.602 30.3294C135.743 29.1947 136.633 27.8657 137.285 26.3486C137.937 24.8315 138.263 23.2079 138.263 21.4777C138.263 19.7474 137.944 18.1238 137.31 16.6067C136.677 15.0959 135.787 13.7669 134.652 12.6322ZM132.219 24.5557C131.887 25.4835 131.404 26.2922 130.771 26.9881C130.138 27.6839 129.379 28.2418 128.489 28.6493C127.599 29.0568 126.596 29.2637 125.48 29.2637C124.426 29.2637 123.448 29.0568 122.564 28.6493C121.674 28.2418 120.903 27.6839 120.257 26.9881C119.605 26.2922 119.103 25.4647 118.74 24.5056C118.376 23.5527 118.201 22.5434 118.201 21.4777C118.201 20.4182 118.364 19.4214 118.696 18.4936C119.028 17.5658 119.511 16.7571 120.144 16.0613C120.777 15.3654 121.536 14.8075 122.426 14.4C123.317 13.9863 124.307 13.7857 125.392 13.7857C126.476 13.7857 127.461 13.9925 128.357 14.4C129.248 14.8075 130.012 15.3717 130.665 16.0864C131.31 16.801 131.818 17.6285 132.182 18.5689C132.545 19.5092 132.727 20.5122 132.727 21.5717C132.721 22.6374 132.552 23.6279 132.219 24.5557Z" fill="black"/>
<path d="M165.041 16.1553C164.408 14.6069 163.561 13.2967 162.52 12.2184C161.473 11.1402 160.282 10.3315 158.953 9.78608C157.624 9.24068 156.238 8.96484 154.821 8.96484C152.884 8.96484 151.266 9.3974 149.962 10.2625C148.658 11.1276 147.567 12.1996 146.69 13.4722V9.46636H141.135V40.786H146.69L146.646 29.7715C147.498 30.8936 148.571 31.8778 149.875 32.7304C151.179 33.5767 152.821 34.003 154.79 34.003C156.213 34.003 157.605 33.7272 158.953 33.1818C160.307 32.6364 161.505 31.8277 162.552 30.7494C163.599 29.6712 164.433 28.361 165.06 26.8125C165.68 25.2641 165.994 23.49 165.994 21.4902C165.994 19.4779 165.68 17.7038 165.041 16.1553ZM159.893 24.6936C159.53 25.6465 159.035 26.4615 158.414 27.126C157.793 27.7968 157.066 28.3108 156.232 28.6744C155.398 29.038 154.508 29.2198 153.567 29.2198C152.627 29.2198 151.73 29.038 150.884 28.6744C150.031 28.3108 149.292 27.7842 148.652 27.1009C148.019 26.4176 147.505 25.6089 147.129 24.6685C146.746 23.7282 146.558 22.6625 146.558 21.4839C146.558 20.2991 146.746 19.2396 147.129 18.293C147.505 17.3527 148.019 16.544 148.652 15.8607C149.292 15.1774 150.031 14.657 150.884 14.2934C151.73 13.9298 152.627 13.748 153.567 13.748C154.508 13.748 155.398 13.9298 156.232 14.2934C157.066 14.657 157.793 15.1774 158.414 15.8419C159.035 16.5064 159.53 17.3213 159.893 18.2742C160.257 19.2271 160.439 20.2991 160.439 21.4839C160.445 22.6688 160.257 23.7345 159.893 24.6936Z" fill="black"/>
<path d="M108.502 29.2196C106.376 29.2196 105.317 28.0034 105.317 25.5773L105.36 14.1553H111.505V9.46611H105.379L105.404 2.86491H99.8495V9.46611H89.7429L89.7366 8.33143C89.7366 5.90535 90.8025 4.68917 92.9216 4.68917C93.5297 4.68917 94.0815 4.74559 94.583 4.84589C95.0846 4.95247 95.605 5.09038 96.1504 5.27845V0.639432C95.5423 0.457633 94.8902 0.307178 94.1943 0.181799C93.4921 0.0626894 92.6645 0 91.6927 0C89.3166 0 87.4796 0.639432 86.1943 1.93083C84.909 3.22224 84.2633 5.20322 84.2633 7.8738V9.46611H81.2162V14.1553H84.2633V33.5012H89.8119L89.7429 14.1553H99.8307V26.0349C99.8307 28.7055 100.47 30.6865 101.762 31.9716C103.047 33.263 104.878 33.9087 107.254 33.9087C108.226 33.9087 109.06 33.8523 109.755 33.7269C110.458 33.6015 111.11 33.4511 111.712 33.2756V28.6303C111.172 28.8121 110.646 28.9563 110.144 29.0628C109.668 29.1694 109.11 29.2196 108.502 29.2196Z" fill="black"/>
<defs>
<linearGradient id="paint0_linear_203_28" x1="98.4363" y1="26.3621" x2="147.78" y2="75.7105" gradientUnits="userSpaceOnUse">
<stop stop-color="#0083FE"/>
<stop offset="1" stop-color="#00FFD1"/>
</linearGradient>
</defs>
</svg>
