<svg width="160" height="65" viewBox="0 0 160 65" fill="none" xmlns="http://www.w3.org/2000/svg">
<path d="M7.74722 56.5555C8.08053 56.3538 8.36902 56.1073 8.60709 55.816C8.84797 55.5276 9.03562 55.1914 9.17287 54.8161C9.31011 54.438 9.37733 54.0095 9.37733 53.5277C9.37733 52.9676 9.2793 52.4634 9.08324 52.0097C8.88718 51.5531 8.60429 51.1722 8.23738 50.8613C7.87046 50.5504 7.42232 50.3095 6.89295 50.1387C6.36359 49.9678 5.7698 49.8838 5.1144 49.8838H0V61.373H2.00263V57.3677H4.53462L7.3635 61.373H9.74144L6.63808 57.0232C7.0442 56.9168 7.41392 56.7571 7.74722 56.5555ZM2.00263 55.5808V51.7072H4.94635C5.70258 51.7072 6.28797 51.8696 6.7053 52.1945C7.12263 52.5194 7.32989 53.0012 7.32989 53.637C7.32989 54.2279 7.11422 54.7013 6.68849 55.0542C6.25996 55.4071 5.68578 55.5808 4.96035 55.5808H2.00263Z" fill="#FF6107"/>
<path d="M17.7855 53.847C17.3766 53.4381 16.8893 53.1132 16.3263 52.8807C15.7633 52.6455 15.1471 52.5278 14.4805 52.5278C13.8139 52.5278 13.1977 52.6483 12.6347 52.8891C12.0718 53.13 11.5844 53.4549 11.1755 53.8667C10.7665 54.2784 10.4444 54.7601 10.2092 55.3091C9.9739 55.8609 9.85626 56.4519 9.85626 57.0737C9.85626 57.6983 9.9711 58.2808 10.2008 58.8214C10.4304 59.362 10.7497 59.8381 11.1615 60.2498C11.5704 60.6616 12.0578 60.9837 12.6207 61.219C13.1837 61.4542 13.7943 61.5719 14.4497 61.5719C15.1163 61.5719 15.7353 61.4514 16.3011 61.2105C16.8697 60.9697 17.3598 60.6448 17.7687 60.233C18.1805 59.8241 18.4998 59.3452 18.7378 58.7962C18.9731 58.25 19.0907 57.6646 19.0907 57.04C19.0907 56.4154 18.9759 55.8301 18.7462 55.2839C18.5166 54.7377 18.1973 54.2588 17.7855 53.847ZM16.9089 58.1492C16.7884 58.4825 16.6148 58.7738 16.3879 59.0259C16.1582 59.2779 15.8837 59.4768 15.5644 59.6253C15.2451 59.7737 14.8838 59.8465 14.4805 59.8465C14.0996 59.8465 13.7495 59.7709 13.4302 59.6253C13.1081 59.4768 12.8308 59.2779 12.5983 59.0259C12.363 58.7738 12.181 58.4769 12.0521 58.1324C11.9205 57.7879 11.8561 57.4238 11.8561 57.04C11.8561 56.6563 11.9177 56.2978 12.0353 55.9645C12.153 55.6284 12.3266 55.3371 12.5563 55.085C12.7832 54.833 13.0605 54.6341 13.3798 54.4856C13.7019 54.34 14.0576 54.2644 14.4469 54.2644C14.839 54.2644 15.1947 54.34 15.514 54.4856C15.8361 54.6341 16.1134 54.8358 16.3459 55.0934C16.5812 55.3511 16.7632 55.648 16.8921 55.9869C17.0209 56.3258 17.0881 56.6871 17.0881 57.0709C17.0881 57.4574 17.0293 57.8159 16.9089 58.1492Z" fill="#FF6107"/>
<path d="M27.5746 53.847C27.1657 53.4381 26.6783 53.1132 26.1154 52.8807C25.5524 52.6455 24.9362 52.5278 24.2696 52.5278C23.603 52.5278 22.9896 52.6483 22.4238 52.8891C21.8608 53.13 21.3763 53.4549 20.9646 53.8667C20.5528 54.2784 20.2307 54.7601 19.9955 55.3091C19.7602 55.8609 19.6425 56.4519 19.6425 57.0737C19.6425 57.6983 19.7574 58.2808 19.9871 58.8214C20.2167 59.362 20.536 59.8381 20.945 60.2498C21.3567 60.6616 21.8412 60.9837 22.4042 61.219C22.9672 61.4542 23.575 61.5719 24.2332 61.5719C24.8998 61.5719 25.516 61.4514 26.0846 61.2105C26.6531 60.9697 27.1433 60.6448 27.5522 60.233C27.9611 59.8241 28.2832 59.3452 28.5185 58.7962C28.7538 58.25 28.8714 57.6646 28.8714 57.04C28.8714 56.4154 28.7566 55.8301 28.5269 55.2839C28.3029 54.7377 27.9836 54.2588 27.5746 53.847ZM26.698 58.1492C26.5775 58.4825 26.4039 58.7738 26.177 59.0259C25.9501 59.2779 25.6756 59.4768 25.3535 59.6253C25.0342 59.7737 24.6729 59.8465 24.2696 59.8465C23.8887 59.8465 23.5386 59.7709 23.2193 59.6253C22.9 59.4768 22.6199 59.2779 22.3874 59.0259C22.1549 58.7738 21.9729 58.4769 21.8412 58.1324C21.7096 57.7879 21.648 57.4238 21.648 57.04C21.648 56.6563 21.7068 56.2978 21.8272 55.9645C21.9477 55.6284 22.1213 55.3371 22.3482 55.085C22.5779 54.833 22.8496 54.6341 23.1717 54.4856C23.4938 54.34 23.8467 54.2644 24.2388 54.2644C24.6309 54.2644 24.9866 54.34 25.3059 54.4856C25.628 54.6341 25.9025 54.8358 26.1378 55.0934C26.3703 55.3511 26.5551 55.648 26.6839 55.9869C26.8156 56.3258 26.88 56.6871 26.88 57.0709C26.8772 57.4574 26.8184 57.8159 26.698 58.1492Z" fill="#FF6107"/>
<path d="M48.5 53.847C48.091 53.4381 47.6037 53.1132 47.0407 52.8807C46.4777 52.6455 45.8643 52.5278 45.1949 52.5278C44.5283 52.5278 43.9121 52.6483 43.3491 52.8891C42.7862 53.13 42.2988 53.4549 41.8899 53.8667C41.481 54.2784 41.1589 54.7601 40.9236 55.3091C40.6883 55.8609 40.5707 56.4519 40.5707 57.0737C40.5707 57.6983 40.6855 58.2808 40.9152 58.8214C41.1449 59.362 41.4642 59.8381 41.8731 60.2498C42.282 60.6616 42.7694 60.9837 43.3323 61.219C43.8953 61.4542 44.5031 61.5719 45.1613 61.5719C45.8279 61.5719 46.4441 61.4514 47.0127 61.2105C47.5813 60.9697 48.0714 60.6448 48.4803 60.233C48.8921 59.8241 49.2114 59.3452 49.4495 58.7962C49.6847 58.25 49.8024 57.6646 49.8024 57.04C49.8024 56.4154 49.6875 55.8301 49.4579 55.2839C49.2282 54.7377 48.9089 54.2588 48.5 53.847ZM47.6233 58.1492C47.5028 58.4825 47.3292 58.7738 47.1023 59.0259C46.8754 59.2779 46.601 59.4768 46.2789 59.6253C45.9596 59.7737 45.5982 59.8465 45.1949 59.8465C44.814 59.8465 44.4639 59.7709 44.1446 59.6253C43.8253 59.4768 43.5452 59.2779 43.3127 59.0259C43.0803 58.7738 42.8954 58.4769 42.7666 58.1324C42.6377 57.7879 42.5733 57.4238 42.5733 57.04C42.5733 56.6563 42.6321 56.2978 42.7526 55.9645C42.873 55.6284 43.0467 55.3371 43.2735 55.085C43.5032 54.833 43.7777 54.6341 44.097 54.4856C44.4191 54.34 44.7748 54.2644 45.1641 54.2644C45.5562 54.2644 45.9091 54.34 46.2284 54.4856C46.5505 54.6341 46.8278 54.8358 47.0603 55.0934C47.2928 55.3511 47.4748 55.648 47.6037 55.9869C47.7353 56.3258 47.7997 56.6871 47.7997 57.0709C47.8025 57.4574 47.7409 57.8159 47.6233 58.1492Z" fill="#FF6107"/>
<path d="M59.443 55.1214C59.2133 54.5641 58.9108 54.0907 58.5355 53.7014C58.1602 53.3121 57.7316 53.0208 57.2527 52.8247C56.7709 52.6287 56.2752 52.5278 55.7654 52.5278C55.068 52.5278 54.4826 52.6847 54.0149 52.9984C53.5443 53.3093 53.155 53.6958 52.8385 54.1551V52.7127H50.8387V64.003H52.8385L52.8217 60.0314C53.127 60.4347 53.5163 60.7932 53.9869 61.0985C54.4574 61.4038 55.0456 61.5579 55.757 61.5579C56.2696 61.5579 56.7709 61.4598 57.2583 61.2638C57.7456 61.0677 58.177 60.7736 58.5523 60.3871C58.9304 59.9978 59.2301 59.5244 59.4542 58.967C59.6783 58.4069 59.7903 57.7683 59.7903 57.0484C59.7875 56.3174 59.6726 55.6788 59.443 55.1214ZM57.5916 58.1968C57.46 58.5413 57.2807 58.8354 57.0566 59.0735C56.8326 59.3144 56.5693 59.4992 56.2696 59.6309C55.9671 59.7625 55.6478 59.8269 55.3089 59.8269C54.97 59.8269 54.6479 59.7597 54.3426 59.6309C54.0373 59.4992 53.7684 59.3116 53.5387 59.0651C53.3091 58.8186 53.127 58.5245 52.9898 58.1856C52.8553 57.8467 52.7853 57.463 52.7853 57.0372C52.7853 56.6115 52.8553 56.2278 52.9898 55.8889C53.127 55.55 53.3091 55.2559 53.5387 55.0094C53.7684 54.7629 54.0345 54.5725 54.3426 54.4436C54.6507 54.312 54.97 54.2476 55.3089 54.2476C55.6478 54.2476 55.9671 54.312 56.2696 54.4436C56.5693 54.5753 56.8326 54.7601 57.0566 55.0038C57.2807 55.2447 57.46 55.536 57.5916 55.8805C57.7232 56.225 57.7877 56.6115 57.7877 57.0372C57.7877 57.4658 57.7232 57.8523 57.5916 58.1968Z" fill="#FF6107"/>
<path d="M39.0778 59.8323C38.3132 59.8323 37.9295 59.3954 37.9295 58.5187L37.9463 54.4014H40.159V52.7097H37.9547L37.9631 50.3289H35.9632V52.7097H32.3221L32.3193 52.2979C32.3193 51.4213 32.703 50.9843 33.4677 50.9843C33.6861 50.9843 33.885 51.0039 34.0643 51.0432C34.2435 51.0796 34.4312 51.1328 34.63 51.1972V49.5223C34.4116 49.4579 34.1763 49.4018 33.9242 49.3598C33.6721 49.315 33.3724 49.2954 33.0223 49.2954C32.1653 49.2954 31.5071 49.5251 31.0449 49.99C30.58 50.455 30.3503 51.1692 30.3503 52.1327V52.7069H29.2523V54.3986H30.3503V61.3728H32.3501L32.3277 54.3986H35.9604V58.6811C35.9604 59.6446 36.1901 60.3589 36.6551 60.8238C37.1172 61.2888 37.7782 61.5212 38.6325 61.5212C38.9826 61.5212 39.2823 61.5016 39.5344 61.4568C39.7864 61.412 40.0217 61.3588 40.2402 61.2916V59.6166C40.0441 59.6839 39.8537 59.7343 39.6744 59.7735C39.4979 59.8127 39.2991 59.8323 39.0778 59.8323Z" fill="#FF6107"/>
<path d="M12.4331 33.2577C13.0521 35.5937 15.2508 36.6244 17.5867 36.6244C19.9927 36.6244 21.2278 35.6637 21.2278 34.5629C21.2278 33.395 20.3344 32.846 18.0657 32.5015L11.1251 31.3335C4.59625 30.1656 0.817867 26.9362 0.817867 21.0263C0.817867 13.3995 7.62119 8.93213 16.3487 8.93213C25.488 8.93213 31.2606 12.506 32.9075 18.6204L21.3623 20.8891C21.0878 19.3094 19.3709 17.4524 16.4159 17.4524C14.08 17.4524 13.1865 18.4831 13.1865 19.5138C13.1865 20.2001 13.5983 20.9563 15.4552 21.368L23.3565 22.9477C30.3643 24.2529 33.5937 28.3758 33.5937 33.9411C33.5937 41.638 26.5159 45.6908 17.3094 45.6908C8.65191 45.6908 1.64132 42.6687 0.131653 35.6581L12.4331 33.2577Z" fill="#1A1A1A"/>
<path d="M159.597 30.4397H135.204C136.027 33.7391 138.226 35.8006 141.525 35.8006C143.931 35.8006 146.335 34.9771 147.64 32.4339L159.115 34.7026C156.23 42.1249 149.701 45.6961 141.525 45.6961C131.148 45.6961 122.628 38.2765 122.628 27.3503C122.628 16.3569 131.148 8.93457 141.525 8.93457C151.833 8.93457 159.529 15.8051 159.597 28.0365V30.4397ZM135.341 23.3619H147.161C146.267 20.407 144.069 18.9645 141.525 18.9645C138.638 18.9645 136.302 20.6142 135.341 23.3619Z" fill="#1A1A1A"/>
<path d="M59.7371 43.1531C57.9501 44.1138 54.6535 45.6963 49.8416 45.6963C40.7723 45.6963 35.8232 40.5427 35.8232 31.8151V19.9954H30.5323V9.96271H35.8232V0H48.6736V9.96271H57.8801V19.9954H48.6736V30.3727C48.6736 33.3976 50.1861 34.5656 52.7965 34.5656C54.239 34.5656 56.0259 34.0839 57.1939 33.4649L59.7371 43.1531Z" fill="#1A1A1A"/>
<path d="M126.784 9.75805L126.303 23.0202H124.241C117.233 23.0202 112.766 25.8379 112.766 34.1509V44.6626H99.9156V9.96251H112.766V16.8331C114.965 12.6429 118.539 9.55078 124.311 9.55078C125.342 9.55078 125.891 9.55078 126.784 9.75805Z" fill="#1A1A1A"/>
<path d="M97.4117 20.3962C96.6106 18.6904 95.1094 17.7773 93.5745 17.9958C91.5691 18.2815 90.1574 20.4074 90.5579 23.2306C90.6224 23.6816 90.726 24.1017 90.8632 24.4882C91.1881 25.4013 91.6979 26.1296 92.3169 26.6309C93.0731 27.2471 93.9862 27.5272 94.9105 27.3956C96.7255 27.1379 98.0531 25.3733 97.9943 22.9646C97.9887 22.7097 97.9663 22.4464 97.9298 22.1803C97.8374 21.5165 97.6582 20.9199 97.4117 20.3962Z" fill="#1A1A1A"/>
<path d="M57.5972 29.7647C58.3983 31.4704 59.8995 32.3835 61.4344 32.165C63.4398 31.8793 64.8515 29.7535 64.451 26.9302C64.3865 26.4792 64.2829 26.0591 64.1457 25.6726C63.8208 24.7595 63.311 24.0313 62.692 23.5299C61.9358 22.9137 61.0227 22.6336 60.0984 22.7653C58.2834 23.023 56.9558 24.7875 57.0146 27.1963C57.0202 27.4511 57.0426 27.7144 57.0791 27.9805C57.1687 28.6443 57.3507 29.2409 57.5972 29.7647Z" fill="#1A1A1A"/>
<path d="M92.8798 16.3993C89.3872 10.509 82.4494 7.5373 75.1531 8.57642C65.6161 9.93485 58.5719 17.6989 59.9836 27.6084C60.2076 29.1881 60.6306 30.6557 61.2132 32.0001C62.5884 35.1679 64.8823 37.6551 67.7168 39.33C71.1815 41.3775 75.4528 42.2121 79.8558 41.5847C88.4797 40.3552 95.0645 33.8879 95.2102 25.3789C95.2242 24.4798 95.171 23.5555 95.0365 22.6144C94.7032 20.2869 93.9526 18.2058 92.8798 16.3993Z" fill="#1A1A1A"/>
<path d="M85.0822 42.1054C83.6062 42.6796 81.934 43.1221 80.0855 43.3854C79.3376 43.4918 78.6094 43.5618 77.9008 43.5982C75.0271 43.7467 72.5147 43.335 70.5345 42.5143C70.0555 42.3154 69.6802 42.9316 70.0779 43.2649C71.9881 44.8614 74.9291 45.7941 78.461 45.6541C79.0855 45.6289 79.7269 45.5729 80.3852 45.4776C82.0125 45.2452 83.4829 44.8334 84.7741 44.2845C86.9868 43.3462 88.6701 42.0017 89.7037 40.4669C89.9894 40.0411 89.4684 39.5426 89.0679 39.8647C87.9923 40.7302 86.6535 41.4948 85.0822 42.1054Z" fill="#FF6107"/>
<path d="M74.5397 6.20395C75.8453 6.20395 76.9037 5.14558 76.9037 3.84001C76.9037 2.53445 75.8453 1.47607 74.5397 1.47607C73.2342 1.47607 72.1758 2.53445 72.1758 3.84001C72.1758 5.14558 73.2342 6.20395 74.5397 6.20395Z" fill="#1A1A1A"/>
<path d="M76.3715 11.5398L74.9738 11.7359L73.8171 3.93825L75.2147 3.74219L76.3715 11.5398Z" fill="#1A1A1A"/>
<path d="M91.1181 22.9727C88.3957 19.4688 82.7099 17.8667 76.5984 18.735C68.6103 19.8721 62.4932 24.8633 63.353 30.902C63.4903 31.8655 63.7956 32.7506 64.2381 33.56C65.2828 35.4618 67.1146 36.9155 69.4225 37.8538C72.243 38.9993 75.7749 39.3746 79.4637 38.8509C86.6871 37.823 92.3813 33.6413 92.7706 28.4148C92.8126 27.863 92.7958 27.2973 92.7146 26.7231C92.5129 25.3002 91.9556 24.0483 91.1181 22.9727Z" fill="#333333"/>
<path d="M67.3947 32.5576C67.1118 31.961 66.9045 31.2804 66.7981 30.5241C66.7533 30.2188 66.7309 29.9191 66.7225 29.6279C66.6944 28.4487 66.9633 27.4068 67.4423 26.5749C67.5571 26.3732 67.2322 26.2304 67.0474 26.4012C66.1511 27.2163 65.5965 28.4459 65.6077 29.8967C65.6105 30.1544 65.6273 30.4177 65.6665 30.6866C65.7618 31.3532 65.9578 31.9498 66.2267 32.4707C66.6916 33.3642 67.3835 34.0336 68.1901 34.4314C68.4142 34.5406 68.6915 34.3165 68.5262 34.1597C68.0809 33.7311 67.6944 33.1934 67.3947 32.5576Z" fill="#666666"/>
<path d="M91.1181 22.9728C89.2415 20.5557 85.9533 19.0432 82.0881 18.623L66.9437 36.5066C67.686 37.0304 68.515 37.4841 69.4253 37.8511C72.2458 38.9966 75.7777 39.3719 79.4664 38.8482C86.6899 37.8202 92.3841 33.6385 92.7734 28.4121C92.8154 27.8603 92.7986 27.2946 92.7174 26.7204C92.5129 25.3003 91.9555 24.0483 91.1181 22.9728Z" fill="url(#paint0_linear_203_246)"/>
<defs>
<linearGradient id="paint0_linear_203_246" x1="95.3485" y1="38.1785" x2="69.8237" y2="24.3462" gradientUnits="userSpaceOnUse">
<stop offset="0.2066" stop-color="#1A1A1A"/>
<stop offset="0.3094" stop-color="#212121"/>
<stop offset="0.5962" stop-color="#2E2E2E"/>
<stop offset="0.8504" stop-color="#333333"/>
</linearGradient>
</defs>
</svg>
